<?xml version='1.0' encoding='utf-8'?>
<!DOCTYPE svg PUBLIC '-//W3C//DTD SVG 1.1//EN' 'http://www.w3.org/Graphics/SVG/1.1/DTD/svg11.dtd'>
<svg version="1.1" xmlns="http://www.w3.org/2000/svg" viewBox="0 0 512 512" xmlns:xlink="http://www.w3.org/1999/xlink" enable-background="new 0 0 512 512">
  <g>
    <g>
      <path d="m426.8,460.2h-5.3v-124.1c0-91.2-74.2-165.5-165.5-165.5-91.2,0-165.5,74.2-165.5,165.5v124.1h-5.3c-11.3,0-20.4,9.1-20.4,20.4 0,11.3 9.1,20.4 20.4,20.4h341.6c11.3,0 20.4-9.1 20.4-20.4-5.68434e-14-11.3-9.1-20.4-20.4-20.4zm-46.2,0h-249.2v-124.1c0-68.7 55.9-124.6 124.6-124.6 68.7,0 124.6,55.9 124.6,124.6v124.1z"/>
      <path d="m256.5,120.9c0.1,0 0.2,0 0.3,0 11.3-0.2 20.3-9.5 20.1-20.7l-1.1-69.1c-0.2-11.2-9.3-20.1-20.4-20.1-0.1,0-0.2,0-0.3,0-11.3,0.2-20.3,9.5-20.1,20.7l1.1,69.1c0.2,11.2 9.3,20.1 20.4,20.1z"/>
      <path d="m371,161.9c0.1,0.1 0.2,0.1 0.3,0.2 9.7,5.7 22.2,2.5 28-7.2l35.2-59.5c5.7-9.6 2.6-22-6.9-27.8-0.1-0.1-0.2-0.1-0.3-0.2-9.7-5.7-22.2-2.5-28,7.2l-35.2,59.5c-5.7,9.6-2.6,22 6.9,27.8z"/>
      <path d="m112.7,154.9c5.7,9.7 18.3,12.9 28,7.2 0.1-0.1 0.2-0.1 0.3-0.2 9.5-5.8 12.6-18.2 6.9-27.8l-35.2-59.5c-5.7-9.7-18.3-12.9-28-7.2-0.1,0.1-0.2,0.1-0.3,0.2-9.5,5.8-12.6,18.2-6.9,27.8l35.2,59.5z"/>
    </g>
  </g>
</svg>
