<?xml version="1.0" encoding="utf-8"?>
<!-- Generator: Adobe Illustrator 22.0.1, SVG Export Plug-In . SVG Version: 6.00 Build 0)  -->
<svg version="1.1" id="Layer_1" xmlns="http://www.w3.org/2000/svg" xmlns:xlink="http://www.w3.org/1999/xlink" x="0px" y="0px"
	 viewBox="0 0 87.2 87.2" style="enable-background:new 0 0 87.2 87.2;" xml:space="preserve">
<style type="text/css">
	.st0{display:none;}
	.st1{display:inline;}
	.st2{fill:#46CC62;}
	.st3{display:inline;fill:#46CC62;}
</style>
<g class="st0">
	<g id="Layer_1_7_" class="st1">
		<g>
			<path class="st2" d="M60.2,25.3H36.5c-0.9,0-1.7,0.7-1.7,1.7v15H27c-0.9,0-1.7,0.7-1.7,1.7v16.6c0,0.9,0.7,1.7,1.7,1.7h15.8h17.4
				c0.9,0,1.7-0.7,1.7-1.7V43.6V27C61.9,26.1,61.1,25.3,60.2,25.3z M38.2,28.6h20.4v12.1l-6.3-3.5c-0.5-0.3-1.1-0.3-1.6,0l-8.3,4.6
				h-4.1L38.2,28.6L38.2,28.6z M28.6,45.2h7.9h4.6v13.3H28.6V45.2z M58.5,58.5H44.4v-14l7.1-3.9l7.1,3.9L58.5,58.5
				C58.5,58.5,58.5,58.5,58.5,58.5z"/>
			<path class="st2" d="M33.2,47.3h-2.5c-0.2,0-0.4,0.2-0.4,0.4v2.5c0,0.2,0.2,0.4,0.4,0.4h2.5c0.2,0,0.4-0.2,0.4-0.4v-2.5
				C33.6,47.5,33.4,47.3,33.2,47.3z"/>
			<path class="st2" d="M39,47.3h-2.5c-0.2,0-0.4,0.2-0.4,0.4v2.5c0,0.2,0.2,0.4,0.4,0.4H39c0.2,0,0.4-0.2,0.4-0.4v-2.5
				C39.4,47.5,39.2,47.3,39,47.3z"/>
			<path class="st2" d="M33.2,53.1h-2.5c-0.2,0-0.4,0.2-0.4,0.4V56c0,0.2,0.2,0.4,0.4,0.4h2.5c0.2,0,0.4-0.2,0.4-0.4v-2.5
				C33.6,53.3,33.4,53.1,33.2,53.1z"/>
			<path class="st2" d="M39,53.1h-2.5c-0.2,0-0.4,0.2-0.4,0.4V56c0,0.2,0.2,0.4,0.4,0.4H39c0.2,0,0.4-0.2,0.4-0.4v-2.5
				C39.4,53.3,39.2,53.1,39,53.1z"/>
			<path class="st2" d="M49.8,47.3h-2.5c-0.2,0-0.4,0.2-0.4,0.4v2.5c0,0.2,0.2,0.4,0.4,0.4h2.5c0.2,0,0.4-0.2,0.4-0.4v-2.5
				C50.2,47.5,50,47.3,49.8,47.3z"/>
			<path class="st2" d="M53.1,50.7h2.5c0.2,0,0.4-0.2,0.4-0.4v-2.5c0-0.2-0.2-0.4-0.4-0.4h-2.5c-0.2,0-0.4,0.2-0.4,0.4v2.5
				C52.7,50.5,52.9,50.7,53.1,50.7z"/>
			<path class="st2" d="M49.8,53.1h-2.5c-0.2,0-0.4,0.2-0.4,0.4V56c0,0.2,0.2,0.4,0.4,0.4h2.5c0.2,0,0.4-0.2,0.4-0.4v-2.5
				C50.2,53.3,50,53.1,49.8,53.1z"/>
			<path class="st2" d="M53.1,56.5h2.5c0.2,0,0.4-0.2,0.4-0.4v-2.5c0-0.2-0.2-0.4-0.4-0.4h-2.5c-0.2,0-0.4,0.2-0.4,0.4V56
				C52.7,56.3,52.9,56.5,53.1,56.5z"/>
			<path class="st2" d="M41.5,34.6H44c0.2,0,0.4-0.2,0.4-0.4v-2.5c0-0.2-0.2-0.4-0.4-0.4h-2.5c-0.2,0-0.4,0.2-0.4,0.4v2.5
				C41.1,34.4,41.3,34.6,41.5,34.6z"/>
			<path class="st2" d="M47.3,34.6h2.5c0.2,0,0.4-0.2,0.4-0.4v-2.5c0-0.2-0.2-0.4-0.4-0.4h-2.5c-0.2,0-0.4,0.2-0.4,0.4v2.5
				C46.9,34.4,47.1,34.6,47.3,34.6z"/>
			<path class="st2" d="M44,40.4c0.2,0,0.4-0.2,0.4-0.4v-2.5c0-0.2-0.2-0.4-0.4-0.4h-2.5c-0.2,0-0.4,0.2-0.4,0.4V40
				c0,0.2,0.2,0.4,0.4,0.4H44z"/>
			<path class="st2" d="M53.1,34.6h2.5c0.2,0,0.4-0.2,0.4-0.4v-2.5c0-0.2-0.2-0.4-0.4-0.4h-2.5c-0.2,0-0.4,0.2-0.4,0.4v2.5
				C52.7,34.4,52.9,34.6,53.1,34.6z"/>
		</g>
	</g>
</g>
<g>
	<polygon class="st2" points="31.2,26.7 31.2,43 39.7,43 39.7,50.4 56,50.4 56,26.7 	"/>
	<polygon class="st2" points="31.2,45.7 31.2,50.4 35.9,50.4 	"/>
	<rect x="31.2" y="52.7" class="st2" width="24.8" height="2.8"/>
	<polygon class="st2" points="37.5,45.3 33.9,45.3 37.5,48.9 	"/>
	<rect x="31.2" y="57.7" class="st2" width="24.8" height="2.8"/>
</g>
<g class="st0">
	<g class="st1">
		<path class="st2" d="M60.9,54c0-0.1-0.5-2.3-1.5-4.7c-1.4-3.5-3.2-5.8-5.4-6.9c-0.3-0.2-3.5-1.7-3.5-1.7L49,39.5l-1.9,1.9
			l-1.2,0.1l-2-2l-1.5,1.3L39.8,42l-12.9,1.1c-0.2,0-0.4,0.2-0.5,0.4c-0.1,0.2-0.1,0.5,0,0.7c1,1.8,1.9,3.5,2.6,5
			c-0.1,0.1-0.2,0.2-0.3,0.3c-2.4,2.4-2.3,4.8-1.5,6.1c0.5,0.9,1.5,1.3,2.4,1.3c0.5,0,1.1-0.1,1.5-0.4c0.1-0.1,0.3-0.2,0.4-0.3
			c0.2,0.8,0.4,1.6,0.5,2.2C32.4,61.4,32,63,32,63c-0.1,0.2,0,0.4,0.1,0.6c0.1,0.2,0.3,0.3,0.5,0.3c0,0,0,0,0,0l20.5-0.8
			c0.4,0,0.7-0.3,0.7-0.7c0-0.5,0-1,0-1.6c0.1,0,0.3,0,0.4,0c0.7,0,1.4-0.2,1.9-0.7l3.8-3.4C60.8,56.1,61.1,55,60.9,54z M33.5,62.5
			c0.1-1.2,0.1-3.6-0.8-7.2c1.1-0.9,1.5-2.2,1.3-3.4c0.1,0,0.2,0.1,0.2,0.1l0.8-0.1c0.3,0,0.5-0.1,0.6-0.3c0.1-0.2,0.2-0.4,0.1-0.7
			l-2-5.1c-0.1-0.1-0.2-0.2-0.4-0.2l-0.5,0c-0.2,0-0.2,0.1-0.2,0.3l1.8,4.7c0,0.1,0,0.2,0,0.3C34.3,51,34.2,51,34.1,51l-0.2,0
			c-0.1,0-0.1,0-0.2,0.1c0,0,0-0.1-0.1-0.1c-0.6-1.1-2.1-1-2.7-0.9c-0.7-1.7-1.7-3.7-2.8-5.8l19.8-1.6c0.7,1.7,3.1,7.7,4.2,13.9
			c-0.3,0.9-0.4,2.4,0.4,3.4c0,0.6,0.1,1.2,0.1,1.8L33.5,62.5z M53.3,55.1l0.5-4.2c0.4,0.9,0.8,1.9,1,2.8L53.3,55.1z"/>
		<path class="st2" d="M46.5,39.4c3.8,0,6.7-3.6,6.7-9.5c0-4.1-1.9-6.6-6.7-6.6c-4.8,0-6.8,2.5-6.7,6.6
			C39.8,35.9,42.7,39.4,46.5,39.4z"/>
		<path class="st2" d="M36.7,55.9l9.9-0.6c0.6,0,1-0.5,1-1.1c0-0.6-0.5-1-1.1-1l-9.9,0.6c-0.6,0-1,0.5-1,1.1
			C35.6,55.5,36.1,55.9,36.7,55.9C36.6,55.9,36.6,55.9,36.7,55.9z"/>
		<path class="st2" d="M47.1,57.4L37.2,58c-0.6,0-1,0.5-1,1.1c0,0.5,0.5,1,1,1c0,0,0,0,0.1,0l9.9-0.6c0.6,0,1-0.5,1-1.1
			C48.1,57.8,47.6,57.4,47.1,57.4z"/>
		<path class="st2" d="M37.2,51.3c0.4,0.2,0.8,0.3,1.3,0.3c0.4,0,0.7-0.2,0.9-0.5c0.2-0.3,0.2-0.6,0.1-1l-1.4-3.6
			c-0.1-0.4-0.4-0.7-0.8-0.9c-0.4-0.2-0.8-0.3-1.3-0.3c-0.4,0-0.7,0.2-0.9,0.5c-0.2,0.3-0.2,0.6-0.1,1l1.4,3.6
			C36.5,50.7,36.8,51,37.2,51.3z M36,46.4c0.1-0.1,0.2-0.2,0.3-0.2c0.1,0,0.3,0,0.4,0.1c0.1,0.1,0.2,0.2,0.3,0.3l1.4,3.6
			c0,0.1,0,0.2,0,0.3c-0.1,0.1-0.2,0.1-0.3,0.2c-0.1,0-0.3,0-0.4-0.1c-0.1-0.1-0.2-0.2-0.3-0.3L36,46.7C36,46.6,36,46.4,36,46.4z"/>
		<path class="st2" d="M40.9,51.1c0.1,0.1,0.2,0.2,0.4,0.2l1.8-0.1c0.3,0,0.5-0.1,0.6-0.3c0.1-0.2,0.2-0.4,0.1-0.7L43,48.3
			c0-0.1-0.1-0.2-0.2-0.2C42.7,48,42.6,48,42.5,48l0,0c0.1,0,0.2,0,0.2-0.1c0.1-0.1,0.1-0.2,0-0.2L42,45.7c-0.1-0.3-0.3-0.5-0.6-0.6
			c-0.3-0.2-0.5-0.2-0.8-0.2l-1.8,0.1c-0.2,0-0.2,0.1-0.2,0.3L40.9,51.1z M41.9,48.6c0.1,0.1,0.2,0.1,0.2,0.2l0.4,1.1
			c0,0.1,0,0.2,0,0.3c-0.1,0.1-0.1,0.1-0.2,0.1l-0.7,0.1l-0.7-1.8l0.7-0.1C41.7,48.5,41.8,48.6,41.9,48.6z M40.5,45.8
			c0.1,0,0.2,0,0.3,0.1s0.2,0.1,0.2,0.2l0.4,1.1c0,0.1,0,0.2,0,0.3c-0.1,0.1-0.1,0.1-0.2,0.1l-0.7,0.1l-0.7-1.8L40.5,45.8z"/>
		<path class="st2" d="M43.3,47c0.1,0.3,0.4,0.6,0.8,0.9c0.4,0.3,0.9,0.4,1.3,0.4c0.1,0,0.3,0,0.4,0.1c0.1,0.1,0.2,0.2,0.3,0.3
			l0.4,0.9c0,0.1,0,0.2,0,0.3C46.3,50,46.2,50,46.1,50c-0.1,0-0.3,0-0.4-0.1c-0.1-0.1-0.2-0.2-0.3-0.3l-0.1-0.2
			c-0.1-0.1-0.2-0.2-0.4-0.2l-0.5,0c-0.2,0-0.2,0.1-0.2,0.3l0.1,0.2c0.1,0.4,0.4,0.7,0.8,0.9c0.4,0.2,0.8,0.3,1.3,0.3
			c0.4,0,0.7-0.2,0.9-0.5c0.2-0.3,0.2-0.6,0.1-1l-0.4-0.9c-0.1-0.3-0.4-0.6-0.8-0.9c-0.4-0.3-0.9-0.4-1.3-0.3c-0.1,0-0.3,0-0.4-0.1
			c-0.1-0.1-0.2-0.2-0.3-0.3L44,46c0-0.1,0-0.2,0-0.3c0.1-0.1,0.2-0.2,0.3-0.2c0.1,0,0.3,0,0.4,0.1c0.1,0.1,0.2,0.2,0.3,0.3l0.1,0.2
			c0.1,0.1,0.2,0.2,0.4,0.2l0.5,0c0.2,0,0.2-0.1,0.2-0.3l-0.1-0.2c-0.1-0.4-0.4-0.7-0.8-0.9c-0.4-0.2-0.8-0.3-1.3-0.3
			c-0.4,0-0.7,0.2-1,0.5c-0.2,0.3-0.2,0.6-0.1,1L43.3,47z"/>
	</g>
</g>
<g class="st0">
	<path class="st3" d="M51,45.3c-1.6-0.5-3.2-0.9-5-1.2h-0.1c2.6-1.4,4.4-4.2,4.4-7.4c0-4.7-3.8-8.5-8.5-8.5s-8.5,3.8-8.5,8.5
		c0,3.3,1.9,6.1,4.6,7.5c-9,1.5-12.3,6.2-12.3,11.7h22c-0.5-1.1-0.8-2.2-0.8-3.5C46.8,49.4,48.5,46.7,51,45.3z"/>
	<path class="st3" d="M55.1,46c-3.6,0-6.5,2.9-6.5,6.5c0,3.6,2.9,6.5,6.5,6.5c3.6,0,6.5-2.9,6.5-6.5C61.5,48.9,58.6,46,55.1,46z
		 M59.3,53.6h-3.1v3.1h-2.3v-3.1h-3.1v-2.3h3.1v-3.1h2.3v3.1h3.1V53.6z"/>
</g>
</svg>
