<?xml version="1.0" encoding="utf-8"?>
<!-- Generator: Adobe Illustrator 22.0.1, SVG Export Plug-In . SVG Version: 6.00 Build 0)  -->
<svg version="1.1" id="Layer_1" xmlns="http://www.w3.org/2000/svg" xmlns:xlink="http://www.w3.org/1999/xlink" x="0px" y="0px"
	 viewBox="0 0 104.7 88.5" style="enable-background:new 0 0 104.7 88.5;" xml:space="preserve">
<style type="text/css">
	.st0{display:none;}
	.st1{display:inline;}
	.st2{fill:#46CC62;}
	.st3{display:inline;fill:#46CC62;}
</style>
<g class="st0">
	<g id="Layer_1_7_" class="st1">
		<g>
			<path class="st2" d="M58.9-5.2H35.2c-0.9,0-1.7,0.7-1.7,1.7v15h-7.9c-0.9,0-1.7,0.7-1.7,1.7v16.6c0,0.9,0.7,1.7,1.7,1.7h15.8
				h17.4c0.9,0,1.7-0.7,1.7-1.7V13.1V-3.5C60.5-4.4,59.8-5.2,58.9-5.2z M36.9-1.9h20.4v12.1L51,6.8c-0.5-0.3-1.1-0.3-1.6,0L41,11.4
				h-4.1L36.9-1.9L36.9-1.9z M27.3,14.7h7.9h4.6V28H27.3V14.7z M57.2,28H43.1v-14l7.1-3.9l7.1,3.9L57.2,28C57.2,28,57.2,28,57.2,28z
				"/>
			<path class="st2" d="M31.9,16.8h-2.5c-0.2,0-0.4,0.2-0.4,0.4v2.5c0,0.2,0.2,0.4,0.4,0.4h2.5c0.2,0,0.4-0.2,0.4-0.4v-2.5
				C32.3,17,32.1,16.8,31.9,16.8z"/>
			<path class="st2" d="M37.7,16.8h-2.5c-0.2,0-0.4,0.2-0.4,0.4v2.5c0,0.2,0.2,0.4,0.4,0.4h2.5c0.2,0,0.4-0.2,0.4-0.4v-2.5
				C38.1,17,37.9,16.8,37.7,16.8z"/>
			<path class="st2" d="M31.9,22.6h-2.5c-0.2,0-0.4,0.2-0.4,0.4v2.5c0,0.2,0.2,0.4,0.4,0.4h2.5c0.2,0,0.4-0.2,0.4-0.4v-2.5
				C32.3,22.8,32.1,22.6,31.9,22.6z"/>
			<path class="st2" d="M37.7,22.6h-2.5c-0.2,0-0.4,0.2-0.4,0.4v2.5c0,0.2,0.2,0.4,0.4,0.4h2.5c0.2,0,0.4-0.2,0.4-0.4v-2.5
				C38.1,22.8,37.9,22.6,37.7,22.6z"/>
			<path class="st2" d="M48.5,16.8H46c-0.2,0-0.4,0.2-0.4,0.4v2.5c0,0.2,0.2,0.4,0.4,0.4h2.5c0.2,0,0.4-0.2,0.4-0.4v-2.5
				C48.9,17,48.7,16.8,48.5,16.8z"/>
			<path class="st2" d="M51.8,20.2h2.5c0.2,0,0.4-0.2,0.4-0.4v-2.5c0-0.2-0.2-0.4-0.4-0.4h-2.5c-0.2,0-0.4,0.2-0.4,0.4v2.5
				C51.4,20,51.6,20.2,51.8,20.2z"/>
			<path class="st2" d="M48.5,22.6H46c-0.2,0-0.4,0.2-0.4,0.4v2.5c0,0.2,0.2,0.4,0.4,0.4h2.5c0.2,0,0.4-0.2,0.4-0.4v-2.5
				C48.9,22.8,48.7,22.6,48.5,22.6z"/>
			<path class="st2" d="M51.8,26h2.5c0.2,0,0.4-0.2,0.4-0.4v-2.5c0-0.2-0.2-0.4-0.4-0.4h-2.5c-0.2,0-0.4,0.2-0.4,0.4v2.5
				C51.4,25.8,51.6,26,51.8,26z"/>
			<path class="st2" d="M40.2,4.1h2.5c0.2,0,0.4-0.2,0.4-0.4V1.2c0-0.2-0.2-0.4-0.4-0.4h-2.5c-0.2,0-0.4,0.2-0.4,0.4v2.5
				C39.8,3.9,39.9,4.1,40.2,4.1z"/>
			<path class="st2" d="M46,4.1h2.5c0.2,0,0.4-0.2,0.4-0.4V1.2c0-0.2-0.2-0.4-0.4-0.4H46c-0.2,0-0.4,0.2-0.4,0.4v2.5
				C45.6,3.9,45.8,4.1,46,4.1z"/>
			<path class="st2" d="M42.7,9.9c0.2,0,0.4-0.2,0.4-0.4V7c0-0.2-0.2-0.4-0.4-0.4h-2.5c-0.2,0-0.4,0.2-0.4,0.4v2.5
				c0,0.2,0.2,0.4,0.4,0.4H42.7z"/>
			<path class="st2" d="M51.8,4.1h2.5c0.2,0,0.4-0.2,0.4-0.4V1.2c0-0.2-0.2-0.4-0.4-0.4h-2.5c-0.2,0-0.4,0.2-0.4,0.4v2.5
				C51.4,3.9,51.6,4.1,51.8,4.1z"/>
		</g>
	</g>
</g>
<g class="st0">
	<polygon class="st3" points="29.9,-3.8 29.9,12.5 38.4,12.5 38.4,19.9 54.7,19.9 54.7,-3.8 	"/>
	<polygon class="st3" points="29.9,15.2 29.9,19.9 34.6,19.9 	"/>
	<rect x="29.9" y="22.2" class="st3" width="24.8" height="2.8"/>
	<polygon class="st3" points="36.1,14.8 32.5,14.8 36.1,18.4 	"/>
	<rect x="29.9" y="27.2" class="st3" width="24.8" height="2.8"/>
</g>
<g class="st0">
	<g class="st1">
		<path class="st2" d="M59.5,23.5c0-0.1-0.5-2.3-1.5-4.7c-1.4-3.5-3.2-5.8-5.4-6.9c-0.3-0.2-3.5-1.7-3.5-1.7L47.7,9l-1.9,1.9
			L44.6,11l-2-2l-1.5,1.3l-2.7,1.2l-12.9,1.1c-0.2,0-0.4,0.2-0.5,0.4c-0.1,0.2-0.1,0.5,0,0.7c1,1.8,1.9,3.5,2.6,5
			c-0.1,0.1-0.2,0.2-0.3,0.3c-2.4,2.4-2.3,4.8-1.5,6.1c0.5,0.9,1.5,1.3,2.4,1.3c0.5,0,1.1-0.1,1.5-0.4c0.1-0.1,0.3-0.2,0.4-0.3
			c0.2,0.8,0.4,1.6,0.5,2.2c0.5,3.1,0.1,4.6,0.1,4.7c-0.1,0.2,0,0.4,0.1,0.6c0.1,0.2,0.3,0.3,0.5,0.3c0,0,0,0,0,0l20.5-0.8
			c0.4,0,0.7-0.3,0.7-0.7c0-0.5,0-1,0-1.6c0.1,0,0.3,0,0.4,0c0.7,0,1.4-0.2,1.9-0.7l3.8-3.4C59.4,25.6,59.8,24.5,59.5,23.5z
			 M32.2,32c0.1-1.2,0.1-3.6-0.8-7.2c1.1-0.9,1.5-2.2,1.3-3.4c0.1,0,0.2,0.1,0.2,0.1l0.8-0.1c0.3,0,0.5-0.1,0.6-0.3
			c0.1-0.2,0.2-0.4,0.1-0.7l-2-5.1C32.2,15.1,32,15,31.9,15l-0.5,0c-0.2,0-0.2,0.1-0.2,0.3l1.8,4.7c0,0.1,0,0.2,0,0.3
			c-0.1,0.1-0.2,0.1-0.3,0.2l-0.2,0c-0.1,0-0.1,0-0.2,0.1c0,0,0-0.1-0.1-0.1c-0.6-1.1-2.1-1-2.7-0.9c-0.7-1.7-1.7-3.7-2.8-5.8
			l19.8-1.6c0.7,1.7,3.1,7.7,4.2,13.9c-0.3,0.9-0.4,2.4,0.4,3.4c0,0.6,0.1,1.2,0.1,1.8L32.2,32z M51.9,24.6l0.5-4.2
			c0.4,0.9,0.8,1.9,1,2.8L51.9,24.6z"/>
		<path class="st2" d="M45.1,8.9c3.8,0,6.7-3.6,6.7-9.5c0-4.1-1.9-6.6-6.7-6.6c-4.8,0-6.8,2.5-6.7,6.6C38.5,5.4,41.3,8.9,45.1,8.9z"
			/>
		<path class="st2" d="M35.3,25.4l9.9-0.6c0.6,0,1-0.5,1-1.1c0-0.6-0.5-1-1.1-1l-9.9,0.6c-0.6,0-1,0.5-1,1.1
			C34.3,25,34.7,25.4,35.3,25.4C35.3,25.4,35.3,25.4,35.3,25.4z"/>
		<path class="st2" d="M45.7,26.9l-9.9,0.6c-0.6,0-1,0.5-1,1.1c0,0.5,0.5,1,1,1c0,0,0,0,0.1,0l9.9-0.6c0.6,0,1-0.5,1-1.1
			C46.8,27.3,46.3,26.9,45.7,26.9z"/>
		<path class="st2" d="M35.9,20.8c0.4,0.2,0.8,0.3,1.3,0.3c0.4,0,0.7-0.2,0.9-0.5c0.2-0.3,0.2-0.6,0.1-1L36.8,16
			c-0.1-0.4-0.4-0.7-0.8-0.9c-0.4-0.2-0.8-0.3-1.3-0.3c-0.4,0-0.7,0.2-0.9,0.5c-0.2,0.3-0.2,0.6-0.1,1l1.4,3.6
			C35.2,20.2,35.5,20.5,35.9,20.8z M34.7,15.9c0.1-0.1,0.2-0.2,0.3-0.2c0.1,0,0.3,0,0.4,0.1c0.1,0.1,0.2,0.2,0.3,0.3l1.4,3.6
			c0,0.1,0,0.2,0,0.3c-0.1,0.1-0.2,0.1-0.3,0.2c-0.1,0-0.3,0-0.4-0.1c-0.1-0.1-0.2-0.2-0.3-0.3l-1.4-3.6
			C34.6,16.1,34.6,15.9,34.7,15.9z"/>
		<path class="st2" d="M39.5,20.6c0.1,0.1,0.2,0.2,0.4,0.2l1.8-0.1c0.3,0,0.5-0.1,0.6-0.3c0.1-0.2,0.2-0.4,0.1-0.7l-0.8-1.9
			c0-0.1-0.1-0.2-0.2-0.2c-0.1-0.1-0.2-0.1-0.3-0.1l0,0c0.1,0,0.2,0,0.2-0.1c0.1-0.1,0.1-0.2,0-0.2l-0.7-1.9
			c-0.1-0.3-0.3-0.5-0.6-0.6c-0.3-0.2-0.5-0.2-0.8-0.2l-1.8,0.1c-0.2,0-0.2,0.1-0.2,0.3L39.5,20.6z M40.6,18.1
			c0.1,0.1,0.2,0.1,0.2,0.2l0.4,1.1c0,0.1,0,0.2,0,0.3c-0.1,0.1-0.1,0.1-0.2,0.1l-0.7,0.1l-0.7-1.8l0.7-0.1
			C40.4,18,40.5,18.1,40.6,18.1z M39.2,15.3c0.1,0,0.2,0,0.3,0.1c0.1,0.1,0.2,0.1,0.2,0.2l0.4,1.1c0,0.1,0,0.2,0,0.3
			c-0.1,0.1-0.1,0.1-0.2,0.1l-0.7,0.1l-0.7-1.8L39.2,15.3z"/>
		<path class="st2" d="M42,16.5c0.1,0.3,0.4,0.6,0.8,0.9c0.4,0.3,0.9,0.4,1.3,0.4c0.1,0,0.3,0,0.4,0.1c0.1,0.1,0.2,0.2,0.3,0.3
			l0.4,0.9c0,0.1,0,0.2,0,0.3c-0.1,0.1-0.2,0.1-0.3,0.2c-0.1,0-0.3,0-0.4-0.1c-0.1-0.1-0.2-0.2-0.3-0.3L44,18.9
			c-0.1-0.1-0.2-0.2-0.4-0.2l-0.5,0c-0.2,0-0.2,0.1-0.2,0.3l0.1,0.2c0.1,0.4,0.4,0.7,0.8,0.9c0.4,0.2,0.8,0.3,1.3,0.3
			c0.4,0,0.7-0.2,0.9-0.5c0.2-0.3,0.2-0.6,0.1-1L45.8,18c-0.1-0.3-0.4-0.6-0.8-0.9c-0.4-0.3-0.9-0.4-1.3-0.3c-0.1,0-0.3,0-0.4-0.1
			c-0.1-0.1-0.2-0.2-0.3-0.3l-0.4-0.9c0-0.1,0-0.2,0-0.3c0.1-0.1,0.2-0.2,0.3-0.2c0.1,0,0.3,0,0.4,0.1c0.1,0.1,0.2,0.2,0.3,0.3
			l0.1,0.2c0.1,0.1,0.2,0.2,0.4,0.2l0.5,0c0.2,0,0.2-0.1,0.2-0.3l-0.1-0.2c-0.1-0.4-0.4-0.7-0.8-0.9c-0.4-0.2-0.8-0.3-1.3-0.3
			c-0.4,0-0.7,0.2-1,0.5c-0.2,0.3-0.2,0.6-0.1,1L42,16.5z"/>
	</g>
</g>
<g>
	<path class="st2" d="M78.9,46.1c-0.2-2.9-5.4-4.2-10.5-4.2c-1.8,0-3.5,0.1-5.1,0.5V25.6c0,0,0-0.1,0-0.1c-0.2-2.9-5.4-4.2-10.5-4.2
		s-10.4,1.3-10.5,4.2c0,0,0,0.1,0,0.1v11.4c-1.7-0.4-3.8-0.6-5.8-0.6c-5.2,0-10.4,1.3-10.5,4.2c0,0,0,0.1,0,0.1v22.3
		c0,3,5.3,4.3,10.5,4.3c5.3,0,10.5-1.3,10.5-4.3v-0.2c1.7,0.4,3.8,0.6,5.8,0.6c1.8,0,3.5-0.2,5.1-0.5v0.1c0,3,5.3,4.3,10.5,4.3
		c5.3,0,10.5-1.3,10.5-4.3V46.2C78.9,46.2,78.9,46.1,78.9,46.1z M63.3,45c1.3-0.3,3-0.5,5.1-0.5c4.8,0,7.4,1.1,7.9,1.7
		c-0.5,0.6-3.1,1.7-7.9,1.7c-2.1,0-3.8-0.2-5.1-0.5c-1.3-0.3-2.2-0.7-2.6-1c-0.1-0.1-0.2-0.1-0.2-0.2c0-0.1,0.1-0.1,0.2-0.2
		C61.1,45.7,61.9,45.3,63.3,45z M52.7,23.9c4.8,0,7.4,1.1,7.9,1.7c-0.5,0.6-3.1,1.7-7.9,1.7c-4.8,0-7.4-1.1-7.9-1.7
		C45.3,25,47.9,23.9,52.7,23.9z M44.8,28.6c2,0.9,5,1.3,7.9,1.3c2.9,0,5.9-0.4,7.9-1.3v2.5c-0.3,0.5-3,1.8-7.9,1.8
		c-5,0-7.6-1.2-7.9-1.8V28.6z M44.8,34.1c2,0.9,5,1.3,7.9,1.3c2.9,0,5.9-0.4,7.9-1.3v2.5c-0.3,0.5-3,1.8-7.9,1.8
		c-5,0-7.6-1.2-7.9-1.8V34.1z M36.3,38.9c2.5,0,4.5,0.3,5.8,0.7c1.2,0.3,1.8,0.7,2.1,1c-0.2,0.3-0.9,0.7-2.1,1
		c-1.3,0.4-3.3,0.7-5.8,0.7c-4.8,0-7.4-1.1-7.9-1.7C28.9,40.1,31.6,38.9,36.3,38.9z M28.4,43.7c2,0.9,5,1.3,7.9,1.3
		c2,0,4.1-0.2,5.8-0.6c0.8-0.2,1.5-0.4,2.1-0.7v2.5c-0.2,0.3-0.9,0.7-2.1,1.1c-1.3,0.4-3.3,0.7-5.8,0.7c-5,0-7.6-1.2-7.9-1.8
		L28.4,43.7z M28.4,49.2c2,0.9,5,1.3,7.9,1.3c2,0,4.1-0.2,5.8-0.6c0.8-0.2,1.5-0.4,2.1-0.7v2.5c-0.2,0.3-0.9,0.7-2.1,1.1
		c-1.3,0.4-3.3,0.7-5.8,0.7c-5,0-7.6-1.2-7.9-1.8L28.4,49.2z M28.4,54.8c2,0.9,5,1.3,7.9,1.3c2,0,4.1-0.2,5.8-0.6
		c0.8-0.2,1.5-0.4,2.1-0.7v2.5c-0.2,0.3-0.9,0.7-2.1,1.1c-1.3,0.4-3.3,0.7-5.8,0.7c-5,0-7.6-1.2-7.9-1.8L28.4,54.8z M44.3,62.9
		c-0.3,0.5-3,1.8-7.9,1.8c-4.9,0-7.6-1.2-7.9-1.8v-2.5c2,0.9,5,1.3,7.9,1.3c2.4,0,4.7-0.3,6.6-0.8c0.5-0.1,0.9-0.3,1.3-0.5v1.4V62.9
		z M57.8,60.2c-1.3,0.3-3,0.5-5.1,0.5c-2.6,0-4.5-0.3-5.8-0.7v-2.9c1.7,0.4,3.8,0.6,5.8,0.6c1.8,0,3.5-0.2,5.1-0.5V60.2z M57.8,54.6
		c-1.3,0.3-3,0.5-5.1,0.5c-2.6,0-4.5-0.3-5.8-0.7v-2.9c1.7,0.4,3.8,0.6,5.8,0.6c1.8,0,3.5-0.2,5.1-0.5V54.6z M57.8,46.2v2.8
		c-1.3,0.3-3,0.5-5.1,0.5c-2.6,0-4.5-0.3-5.8-0.7V46c1.7,0.4,3.8,0.6,5.8,0.6C54.5,46.6,56.2,46.5,57.8,46.2
		C57.8,46.2,57.8,46.2,57.8,46.2z M52.7,44c-2.6,0-4.5-0.3-5.8-0.7v-2.6c0,0,0-0.1,0-0.1c0,0,0-0.1,0-0.1c1.7,0.4,3.8,0.6,5.8,0.6
		c2.9,0,5.9-0.4,7.9-1.3v2.5C60.3,42.8,57.7,44,52.7,44z M76.3,62.9c-0.3,0.5-3,1.8-7.9,1.8c-4.9,0-7.6-1.2-7.9-1.8v-0.8v-1.8
		c0.6,0.2,1.2,0.5,1.9,0.6c1.8,0.5,3.9,0.7,6.1,0.7c2.9,0,5.9-0.4,7.9-1.3L76.3,62.9L76.3,62.9z M76.3,57.3c-0.3,0.5-3,1.8-7.9,1.8
		c-2.1,0-3.8-0.2-5.1-0.5c-1.3-0.3-2.2-0.7-2.6-1c-0.1-0.1-0.2-0.2-0.3-0.2v-0.8v-1.8c0.8,0.4,1.8,0.6,2.9,0.9
		c1.6,0.3,3.3,0.5,5.1,0.5c2.9,0,5.9-0.4,7.9-1.3V57.3z M76.3,51.7c-0.3,0.5-3,1.8-7.9,1.8c-2.1,0-3.8-0.2-5.1-0.5
		c-1.3-0.3-2.2-0.7-2.6-1c-0.1-0.1-0.2-0.2-0.3-0.2V51v-1.8c0.8,0.4,1.8,0.6,2.9,0.9c1.6,0.3,3.3,0.5,5.1,0.5c2.9,0,5.9-0.4,7.9-1.3
		V51.7z"/>
</g>
</svg>
