<svg width="64" height="64" xmlns="http://www.w3.org/2000/svg">
 <style type="text/css">.st0{display:none;}
	.st1{display:inline;}
	.st2{fill:#46CC62;}
	.st3{display:inline;fill:#46CC62;}</style>

 <g>
  <title>background</title>
  <rect fill="none" id="canvas_background" height="66" width="66" y="-1" x="-1"/>
 </g>
 <g>
  <title>Layer 1</title>
  <g id="svg_1" class="st0">
   <g class="st1" id="Layer_1_7_">
    <g id="svg_2">
     <path id="svg_3" d="m58.9,-5.2l-23.7,0c-0.9,0 -1.7,0.7 -1.7,1.7l0,15l-7.9,0c-0.9,0 -1.7,0.7 -1.7,1.7l0,16.6c0,0.9 0.7,1.7 1.7,1.7l15.8,0l17.4,0c0.9,0 1.7,-0.7 1.7,-1.7l0,-16.7l0,-16.6c0,-0.9 -0.7,-1.7 -1.6,-1.7zm-22,3.3l20.4,0l0,12.1l-6.3,-3.4c-0.5,-0.3 -1.1,-0.3 -1.6,0l-8.4,4.6l-4.1,0l0,-13.3l0,0zm-9.6,16.6l7.9,0l4.6,0l0,13.3l-12.5,0l0,-13.3zm29.9,13.3l-14.1,0l0,-14l7.1,-3.9l7.1,3.9l-0.1,14c0,0 0,0 0,0z" class="st2"/>
     <path id="svg_4" d="m31.9,16.8l-2.5,0c-0.2,0 -0.4,0.2 -0.4,0.4l0,2.5c0,0.2 0.2,0.4 0.4,0.4l2.5,0c0.2,0 0.4,-0.2 0.4,-0.4l0,-2.5c0,-0.2 -0.2,-0.4 -0.4,-0.4z" class="st2"/>
     <path id="svg_5" d="m37.7,16.8l-2.5,0c-0.2,0 -0.4,0.2 -0.4,0.4l0,2.5c0,0.2 0.2,0.4 0.4,0.4l2.5,0c0.2,0 0.4,-0.2 0.4,-0.4l0,-2.5c0,-0.2 -0.2,-0.4 -0.4,-0.4z" class="st2"/>
     <path id="svg_6" d="m31.9,22.6l-2.5,0c-0.2,0 -0.4,0.2 -0.4,0.4l0,2.5c0,0.2 0.2,0.4 0.4,0.4l2.5,0c0.2,0 0.4,-0.2 0.4,-0.4l0,-2.5c0,-0.2 -0.2,-0.4 -0.4,-0.4z" class="st2"/>
     <path id="svg_7" d="m37.7,22.6l-2.5,0c-0.2,0 -0.4,0.2 -0.4,0.4l0,2.5c0,0.2 0.2,0.4 0.4,0.4l2.5,0c0.2,0 0.4,-0.2 0.4,-0.4l0,-2.5c0,-0.2 -0.2,-0.4 -0.4,-0.4z" class="st2"/>
     <path id="svg_8" d="m48.5,16.8l-2.5,0c-0.2,0 -0.4,0.2 -0.4,0.4l0,2.5c0,0.2 0.2,0.4 0.4,0.4l2.5,0c0.2,0 0.4,-0.2 0.4,-0.4l0,-2.5c0,-0.2 -0.2,-0.4 -0.4,-0.4z" class="st2"/>
     <path id="svg_9" d="m51.8,20.2l2.5,0c0.2,0 0.4,-0.2 0.4,-0.4l0,-2.5c0,-0.2 -0.2,-0.4 -0.4,-0.4l-2.5,0c-0.2,0 -0.4,0.2 -0.4,0.4l0,2.5c0,0.2 0.2,0.4 0.4,0.4z" class="st2"/>
     <path id="svg_10" d="m48.5,22.6l-2.5,0c-0.2,0 -0.4,0.2 -0.4,0.4l0,2.5c0,0.2 0.2,0.4 0.4,0.4l2.5,0c0.2,0 0.4,-0.2 0.4,-0.4l0,-2.5c0,-0.2 -0.2,-0.4 -0.4,-0.4z" class="st2"/>
     <path id="svg_11" d="m51.8,26l2.5,0c0.2,0 0.4,-0.2 0.4,-0.4l0,-2.5c0,-0.2 -0.2,-0.4 -0.4,-0.4l-2.5,0c-0.2,0 -0.4,0.2 -0.4,0.4l0,2.5c0,0.2 0.2,0.4 0.4,0.4z" class="st2"/>
     <path id="svg_12" d="m40.2,4.1l2.5,0c0.2,0 0.4,-0.2 0.4,-0.4l0,-2.5c0,-0.2 -0.2,-0.4 -0.4,-0.4l-2.5,0c-0.2,0 -0.4,0.2 -0.4,0.4l0,2.5c0,0.2 0.1,0.4 0.4,0.4z" class="st2"/>
     <path id="svg_13" d="m46,4.1l2.5,0c0.2,0 0.4,-0.2 0.4,-0.4l0,-2.5c0,-0.2 -0.2,-0.4 -0.4,-0.4l-2.5,0c-0.2,0 -0.4,0.2 -0.4,0.4l0,2.5c0,0.2 0.2,0.4 0.4,0.4z" class="st2"/>
     <path id="svg_14" d="m42.7,9.9c0.2,0 0.4,-0.2 0.4,-0.4l0,-2.5c0,-0.2 -0.2,-0.4 -0.4,-0.4l-2.5,0c-0.2,0 -0.4,0.2 -0.4,0.4l0,2.5c0,0.2 0.2,0.4 0.4,0.4l2.5,0z" class="st2"/>
     <path id="svg_15" d="m51.8,4.1l2.5,0c0.2,0 0.4,-0.2 0.4,-0.4l0,-2.5c0,-0.2 -0.2,-0.4 -0.4,-0.4l-2.5,0c-0.2,0 -0.4,0.2 -0.4,0.4l0,2.5c0,0.2 0.2,0.4 0.4,0.4z" class="st2"/>
    </g>
   </g>
  </g>
  <g id="svg_16" class="st0">
   <polygon id="svg_17" points="29.9,-3.8 29.9,12.5 38.4,12.5 38.4,19.9 54.7,19.9 54.7,-3.8  " class="st3"/>
   <polygon id="svg_18" points="29.9,15.2 29.9,19.9 34.6,19.9  " class="st3"/>
   <rect id="svg_19" height="2.8" width="24.8" class="st3" y="22.2" x="29.9"/>
   <polygon id="svg_20" points="36.1,14.8 32.5,14.8 36.1,18.4  " class="st3"/>
   <rect id="svg_21" height="2.8" width="24.8" class="st3" y="27.2" x="29.9"/>
  </g>
  <g id="svg_22" class="st0">
   <g id="svg_23" class="st1">
    <path id="svg_24" d="m59.5,23.5c0,-0.1 -0.5,-2.3 -1.5,-4.7c-1.4,-3.5 -3.2,-5.8 -5.4,-6.9c-0.3,-0.2 -3.5,-1.7 -3.5,-1.7l-1.4,-1.2l-1.9,1.9l-1.2,0.1l-2,-2l-1.5,1.3l-2.7,1.2l-12.9,1.1c-0.2,0 -0.4,0.2 -0.5,0.4c-0.1,0.2 -0.1,0.5 0,0.7c1,1.8 1.9,3.5 2.6,5c-0.1,0.1 -0.2,0.2 -0.3,0.3c-2.4,2.4 -2.3,4.8 -1.5,6.1c0.5,0.9 1.5,1.3 2.4,1.3c0.5,0 1.1,-0.1 1.5,-0.4c0.1,-0.1 0.3,-0.2 0.4,-0.3c0.2,0.8 0.4,1.6 0.5,2.2c0.5,3.1 0.1,4.6 0.1,4.7c-0.1,0.2 0,0.4 0.1,0.6c0.1,0.2 0.3,0.3 0.5,0.3c0,0 0,0 0,0l20.5,-0.8c0.4,0 0.7,-0.3 0.7,-0.7c0,-0.5 0,-1 0,-1.6c0.1,0 0.3,0 0.4,0c0.7,0 1.4,-0.2 1.9,-0.7l3.8,-3.4c0.8,-0.7 1.2,-1.8 0.9,-2.8zm-27.3,8.5c0.1,-1.2 0.1,-3.6 -0.8,-7.2c1.1,-0.9 1.5,-2.2 1.3,-3.4c0.1,0 0.2,0.1 0.2,0.1l0.8,-0.1c0.3,0 0.5,-0.1 0.6,-0.3c0.1,-0.2 0.2,-0.4 0.1,-0.7l-2,-5.1c-0.2,-0.2 -0.4,-0.3 -0.5,-0.3l-0.5,0c-0.2,0 -0.2,0.1 -0.2,0.3l1.8,4.7c0,0.1 0,0.2 0,0.3c-0.1,0.1 -0.2,0.1 -0.3,0.2l-0.2,0c-0.1,0 -0.1,0 -0.2,0.1c0,0 0,-0.1 -0.1,-0.1c-0.6,-1.1 -2.1,-1 -2.7,-0.9c-0.7,-1.7 -1.7,-3.7 -2.8,-5.8l19.8,-1.6c0.7,1.7 3.1,7.7 4.2,13.9c-0.3,0.9 -0.4,2.4 0.4,3.4c0,0.6 0.1,1.2 0.1,1.8l-19,0.7zm19.7,-7.4l0.5,-4.2c0.4,0.9 0.8,1.9 1,2.8l-1.5,1.4z" class="st2"/>
    <path id="svg_25" d="m45.1,8.9c3.8,0 6.7,-3.6 6.7,-9.5c0,-4.1 -1.9,-6.6 -6.7,-6.6c-4.8,0 -6.8,2.5 -6.7,6.6c0.1,6 2.9,9.5 6.7,9.5z" class="st2"/>
    <path id="svg_26" d="m35.3,25.4l9.9,-0.6c0.6,0 1,-0.5 1,-1.1c0,-0.6 -0.5,-1 -1.1,-1l-9.9,0.6c-0.6,0 -1,0.5 -1,1.1c0.1,0.6 0.5,1 1.1,1c0,0 0,0 0,0z" class="st2"/>
    <path id="svg_27" d="m45.7,26.9l-9.9,0.6c-0.6,0 -1,0.5 -1,1.1c0,0.5 0.5,1 1,1c0,0 0,0 0.1,0l9.9,-0.6c0.6,0 1,-0.5 1,-1.1c0,-0.6 -0.5,-1 -1.1,-1z" class="st2"/>
    <path id="svg_28" d="m35.9,20.8c0.4,0.2 0.8,0.3 1.3,0.3c0.4,0 0.7,-0.2 0.9,-0.5c0.2,-0.3 0.2,-0.6 0.1,-1l-1.4,-3.6c-0.1,-0.4 -0.4,-0.7 -0.8,-0.9c-0.4,-0.2 -0.8,-0.3 -1.3,-0.3c-0.4,0 -0.7,0.2 -0.9,0.5c-0.2,0.3 -0.2,0.6 -0.1,1l1.4,3.6c0.1,0.3 0.4,0.6 0.8,0.9zm-1.2,-4.9c0.1,-0.1 0.2,-0.2 0.3,-0.2c0.1,0 0.3,0 0.4,0.1c0.1,0.1 0.2,0.2 0.3,0.3l1.4,3.6c0,0.1 0,0.2 0,0.3c-0.1,0.1 -0.2,0.1 -0.3,0.2c-0.1,0 -0.3,0 -0.4,-0.1c-0.1,-0.1 -0.2,-0.2 -0.3,-0.3l-1.4,-3.6c-0.1,-0.1 -0.1,-0.3 0,-0.3z" class="st2"/>
    <path id="svg_29" d="m39.5,20.6c0.1,0.1 0.2,0.2 0.4,0.2l1.8,-0.1c0.3,0 0.5,-0.1 0.6,-0.3c0.1,-0.2 0.2,-0.4 0.1,-0.7l-0.8,-1.9c0,-0.1 -0.1,-0.2 -0.2,-0.2c-0.1,-0.1 -0.2,-0.1 -0.3,-0.1l0,0c0.1,0 0.2,0 0.2,-0.1c0.1,-0.1 0.1,-0.2 0,-0.2l-0.7,-1.9c-0.1,-0.3 -0.3,-0.5 -0.6,-0.6c-0.3,-0.2 -0.5,-0.2 -0.8,-0.2l-1.8,0.1c-0.2,0 -0.2,0.1 -0.2,0.3l2.3,5.7zm1.1,-2.5c0.1,0.1 0.2,0.1 0.2,0.2l0.4,1.1c0,0.1 0,0.2 0,0.3c-0.1,0.1 -0.1,0.1 -0.2,0.1l-0.7,0.1l-0.7,-1.8l0.7,-0.1c0.1,0 0.2,0.1 0.3,0.1zm-1.4,-2.8c0.1,0 0.2,0 0.3,0.1c0.1,0.1 0.2,0.1 0.2,0.2l0.4,1.1c0,0.1 0,0.2 0,0.3c-0.1,0.1 -0.1,0.1 -0.2,0.1l-0.7,0.1l-0.7,-1.8l0.7,-0.1z" class="st2"/>
    <path id="svg_30" d="m42,16.5c0.1,0.3 0.4,0.6 0.8,0.9c0.4,0.3 0.9,0.4 1.3,0.4c0.1,0 0.3,0 0.4,0.1c0.1,0.1 0.2,0.2 0.3,0.3l0.4,0.9c0,0.1 0,0.2 0,0.3c-0.1,0.1 -0.2,0.1 -0.3,0.2c-0.1,0 -0.3,0 -0.4,-0.1c-0.1,-0.1 -0.2,-0.2 -0.3,-0.3l-0.2,-0.3c-0.1,-0.1 -0.2,-0.2 -0.4,-0.2l-0.5,0c-0.2,0 -0.2,0.1 -0.2,0.3l0.1,0.2c0.1,0.4 0.4,0.7 0.8,0.9c0.4,0.2 0.8,0.3 1.3,0.3c0.4,0 0.7,-0.2 0.9,-0.5c0.2,-0.3 0.2,-0.6 0.1,-1l-0.3,-0.9c-0.1,-0.3 -0.4,-0.6 -0.8,-0.9c-0.4,-0.3 -0.9,-0.4 -1.3,-0.3c-0.1,0 -0.3,0 -0.4,-0.1c-0.1,-0.1 -0.2,-0.2 -0.3,-0.3l-0.4,-0.9c0,-0.1 0,-0.2 0,-0.3c0.1,-0.1 0.2,-0.2 0.3,-0.2c0.1,0 0.3,0 0.4,0.1c0.1,0.1 0.2,0.2 0.3,0.3l0.1,0.2c0.1,0.1 0.2,0.2 0.4,0.2l0.5,0c0.2,0 0.2,-0.1 0.2,-0.3l-0.1,-0.2c-0.1,-0.4 -0.4,-0.7 -0.8,-0.9c-0.4,-0.2 -0.8,-0.3 -1.3,-0.3c-0.4,0 -0.7,0.2 -1,0.5c-0.2,0.3 -0.2,0.6 -0.1,1l0.5,0.9z" class="st2"/>
   </g>
  </g>
  <g id="_x34_4-18Plus_movie">
   <g id="svg_31">
    <path id="svg_32" d="m20.5,42.3l0,-16l-3.7,0l0,-4.1l8.8,0l0,20.1l-5.1,0l0,0z" class="st2"/>
   </g>
   <g id="svg_33">
    <path id="svg_34" d="m44.8,27.4c0,1.7 -0.9,3.3 -2.5,4.2c2.2,0.9 3.6,2.8 3.6,5.1c0,3.6 -3.2,5.9 -8.2,5.9c-5,0 -8.2,-2.3 -8.2,-5.8c0,-2.3 1.5,-4.2 3.8,-5.2c-1.7,-0.9 -2.8,-2.5 -2.8,-4.3c0,-3.2 2.8,-5.2 7.2,-5.2c4.3,-0.1 7.1,2 7.1,5.3zm-10.6,8.8c0,1.7 1.2,2.6 3.4,2.6s3.4,-0.9 3.4,-2.6c0,-1.7 -1.2,-2.6 -3.4,-2.6c-2.2,0 -3.4,0.9 -3.4,2.6zm0.5,-8.5c0,1.4 1,2.2 2.9,2.2c1.9,0 2.9,-0.8 2.9,-2.2c0,-1.5 -1,-2.3 -2.9,-2.3c-1.8,0 -2.9,0.8 -2.9,2.3z" class="st2"/>
   </g>
   <g id="svg_35">
    <path id="svg_36" d="m54.3,24.5c0.8,2.5 1.3,5.1 1.3,7.8c0,13.4 -10.9,24.3 -24.3,24.3s-24.2,-11 -24.2,-24.3c0,-13.4 10.9,-24.3 24.2,-24.3c2.7,0 5.3,0.4 7.8,1.3l0,-5.4c-2.5,-0.7 -5.1,-1 -7.8,-1c-16.2,0 -29.4,13.2 -29.4,29.4s13.2,29.4 29.4,29.4s29.4,-13.2 29.4,-29.4c0,-2.7 -0.4,-5.3 -1,-7.8l-5.4,0z" class="st2"/>
   </g>
   <g id="svg_37">
    <polygon id="svg_38" points="52.900001525878906,10.700000762939453 52.900001525878906,5.099998474121094 48.80000305175781,5.099998474121094 48.80000305175781,10.700000762939453 43.19999694824219,10.700000762939453 43.19999694824219,14.799999237060547 48.80000305175781,14.799999237060547 48.80000305175781,20.400001525878906 52.900001525878906,20.400001525878906 52.900001525878906,14.799999237060547 58.5,14.799999237060547 58.5,10.700000762939453 " class="st2"/>
   </g>
  </g>
 </g>
</svg>