<svg width="64.7" height="67.5" xmlns="http://www.w3.org/2000/svg">
 <style type="text/css">.st0{display:none;}
	.st1{display:inline;}
	.st2{fill:#46CC62;}
	.st3{display:inline;fill:#46CC62;}</style>

 <g>
  <title>background</title>
  <rect fill="none" id="canvas_background" height="69.5" width="66.7" y="-1" x="-1"/>
 </g>
 <g>
  <title>Layer 1</title>
  <g id="svg_1" class="st0">
   <g class="st1" id="Layer_1_7_">
    <g id="svg_2">
     <path id="svg_3" d="m58.9,-5.2l-23.7,0c-0.9,0 -1.7,0.7 -1.7,1.7l0,15l-7.9,0c-0.9,0 -1.7,0.7 -1.7,1.7l0,16.6c0,0.9 0.7,1.7 1.7,1.7l15.8,0l17.4,0c0.9,0 1.7,-0.7 1.7,-1.7l0,-16.7l0,-16.6c0,-0.9 -0.7,-1.7 -1.6,-1.7zm-22,3.3l20.4,0l0,12.1l-6.3,-3.4c-0.5,-0.3 -1.1,-0.3 -1.6,0l-8.4,4.6l-4.1,0l0,-13.3l0,0zm-9.6,16.6l7.9,0l4.6,0l0,13.3l-12.5,0l0,-13.3zm29.9,13.3l-14.1,0l0,-14l7.1,-3.9l7.1,3.9l-0.1,14c0,0 0,0 0,0z" class="st2"/>
     <path id="svg_4" d="m31.9,16.8l-2.5,0c-0.2,0 -0.4,0.2 -0.4,0.4l0,2.5c0,0.2 0.2,0.4 0.4,0.4l2.5,0c0.2,0 0.4,-0.2 0.4,-0.4l0,-2.5c0,-0.2 -0.2,-0.4 -0.4,-0.4z" class="st2"/>
     <path id="svg_5" d="m37.7,16.8l-2.5,0c-0.2,0 -0.4,0.2 -0.4,0.4l0,2.5c0,0.2 0.2,0.4 0.4,0.4l2.5,0c0.2,0 0.4,-0.2 0.4,-0.4l0,-2.5c0,-0.2 -0.2,-0.4 -0.4,-0.4z" class="st2"/>
     <path id="svg_6" d="m31.9,22.6l-2.5,0c-0.2,0 -0.4,0.2 -0.4,0.4l0,2.5c0,0.2 0.2,0.4 0.4,0.4l2.5,0c0.2,0 0.4,-0.2 0.4,-0.4l0,-2.5c0,-0.2 -0.2,-0.4 -0.4,-0.4z" class="st2"/>
     <path id="svg_7" d="m37.7,22.6l-2.5,0c-0.2,0 -0.4,0.2 -0.4,0.4l0,2.5c0,0.2 0.2,0.4 0.4,0.4l2.5,0c0.2,0 0.4,-0.2 0.4,-0.4l0,-2.5c0,-0.2 -0.2,-0.4 -0.4,-0.4z" class="st2"/>
     <path id="svg_8" d="m48.5,16.8l-2.5,0c-0.2,0 -0.4,0.2 -0.4,0.4l0,2.5c0,0.2 0.2,0.4 0.4,0.4l2.5,0c0.2,0 0.4,-0.2 0.4,-0.4l0,-2.5c0,-0.2 -0.2,-0.4 -0.4,-0.4z" class="st2"/>
     <path id="svg_9" d="m51.8,20.2l2.5,0c0.2,0 0.4,-0.2 0.4,-0.4l0,-2.5c0,-0.2 -0.2,-0.4 -0.4,-0.4l-2.5,0c-0.2,0 -0.4,0.2 -0.4,0.4l0,2.5c0,0.2 0.2,0.4 0.4,0.4z" class="st2"/>
     <path id="svg_10" d="m48.5,22.6l-2.5,0c-0.2,0 -0.4,0.2 -0.4,0.4l0,2.5c0,0.2 0.2,0.4 0.4,0.4l2.5,0c0.2,0 0.4,-0.2 0.4,-0.4l0,-2.5c0,-0.2 -0.2,-0.4 -0.4,-0.4z" class="st2"/>
     <path id="svg_11" d="m51.8,26l2.5,0c0.2,0 0.4,-0.2 0.4,-0.4l0,-2.5c0,-0.2 -0.2,-0.4 -0.4,-0.4l-2.5,0c-0.2,0 -0.4,0.2 -0.4,0.4l0,2.5c0,0.2 0.2,0.4 0.4,0.4z" class="st2"/>
     <path id="svg_12" d="m40.2,4.1l2.5,0c0.2,0 0.4,-0.2 0.4,-0.4l0,-2.5c0,-0.2 -0.2,-0.4 -0.4,-0.4l-2.5,0c-0.2,0 -0.4,0.2 -0.4,0.4l0,2.5c0,0.2 0.1,0.4 0.4,0.4z" class="st2"/>
     <path id="svg_13" d="m46,4.1l2.5,0c0.2,0 0.4,-0.2 0.4,-0.4l0,-2.5c0,-0.2 -0.2,-0.4 -0.4,-0.4l-2.5,0c-0.2,0 -0.4,0.2 -0.4,0.4l0,2.5c0,0.2 0.2,0.4 0.4,0.4z" class="st2"/>
     <path id="svg_14" d="m42.7,9.9c0.2,0 0.4,-0.2 0.4,-0.4l0,-2.5c0,-0.2 -0.2,-0.4 -0.4,-0.4l-2.5,0c-0.2,0 -0.4,0.2 -0.4,0.4l0,2.5c0,0.2 0.2,0.4 0.4,0.4l2.5,0z" class="st2"/>
     <path id="svg_15" d="m51.8,4.1l2.5,0c0.2,0 0.4,-0.2 0.4,-0.4l0,-2.5c0,-0.2 -0.2,-0.4 -0.4,-0.4l-2.5,0c-0.2,0 -0.4,0.2 -0.4,0.4l0,2.5c0,0.2 0.2,0.4 0.4,0.4z" class="st2"/>
    </g>
   </g>
  </g>
  <g id="svg_16" class="st0">
   <polygon id="svg_17" points="29.9,-3.8 29.9,12.5 38.4,12.5 38.4,19.9 54.7,19.9 54.7,-3.8  " class="st3"/>
   <polygon id="svg_18" points="29.9,15.2 29.9,19.9 34.6,19.9  " class="st3"/>
   <rect id="svg_19" height="2.8" width="24.8" class="st3" y="22.2" x="29.9"/>
   <polygon id="svg_20" points="36.1,14.8 32.5,14.8 36.1,18.4  " class="st3"/>
   <rect id="svg_21" height="2.8" width="24.8" class="st3" y="27.2" x="29.9"/>
  </g>
  <g id="svg_22" class="st0">
   <g id="svg_23" class="st1">
    <path id="svg_24" d="m59.5,23.5c0,-0.1 -0.5,-2.3 -1.5,-4.7c-1.4,-3.5 -3.2,-5.8 -5.4,-6.9c-0.3,-0.2 -3.5,-1.7 -3.5,-1.7l-1.4,-1.2l-1.9,1.9l-1.2,0.1l-2,-2l-1.5,1.3l-2.7,1.2l-12.9,1.1c-0.2,0 -0.4,0.2 -0.5,0.4c-0.1,0.2 -0.1,0.5 0,0.7c1,1.8 1.9,3.5 2.6,5c-0.1,0.1 -0.2,0.2 -0.3,0.3c-2.4,2.4 -2.3,4.8 -1.5,6.1c0.5,0.9 1.5,1.3 2.4,1.3c0.5,0 1.1,-0.1 1.5,-0.4c0.1,-0.1 0.3,-0.2 0.4,-0.3c0.2,0.8 0.4,1.6 0.5,2.2c0.5,3.1 0.1,4.6 0.1,4.7c-0.1,0.2 0,0.4 0.1,0.6c0.1,0.2 0.3,0.3 0.5,0.3c0,0 0,0 0,0l20.5,-0.8c0.4,0 0.7,-0.3 0.7,-0.7c0,-0.5 0,-1 0,-1.6c0.1,0 0.3,0 0.4,0c0.7,0 1.4,-0.2 1.9,-0.7l3.8,-3.4c0.8,-0.7 1.2,-1.8 0.9,-2.8zm-27.3,8.5c0.1,-1.2 0.1,-3.6 -0.8,-7.2c1.1,-0.9 1.5,-2.2 1.3,-3.4c0.1,0 0.2,0.1 0.2,0.1l0.8,-0.1c0.3,0 0.5,-0.1 0.6,-0.3c0.1,-0.2 0.2,-0.4 0.1,-0.7l-2,-5.1c-0.2,-0.2 -0.4,-0.3 -0.5,-0.3l-0.5,0c-0.2,0 -0.2,0.1 -0.2,0.3l1.8,4.7c0,0.1 0,0.2 0,0.3c-0.1,0.1 -0.2,0.1 -0.3,0.2l-0.2,0c-0.1,0 -0.1,0 -0.2,0.1c0,0 0,-0.1 -0.1,-0.1c-0.6,-1.1 -2.1,-1 -2.7,-0.9c-0.7,-1.7 -1.7,-3.7 -2.8,-5.8l19.8,-1.6c0.7,1.7 3.1,7.7 4.2,13.9c-0.3,0.9 -0.4,2.4 0.4,3.4c0,0.6 0.1,1.2 0.1,1.8l-19,0.7zm19.7,-7.4l0.5,-4.2c0.4,0.9 0.8,1.9 1,2.8l-1.5,1.4z" class="st2"/>
    <path id="svg_25" d="m45.1,8.9c3.8,0 6.7,-3.6 6.7,-9.5c0,-4.1 -1.9,-6.6 -6.7,-6.6c-4.8,0 -6.8,2.5 -6.7,6.6c0.1,6 2.9,9.5 6.7,9.5z" class="st2"/>
    <path id="svg_26" d="m35.3,25.4l9.9,-0.6c0.6,0 1,-0.5 1,-1.1c0,-0.6 -0.5,-1 -1.1,-1l-9.9,0.6c-0.6,0 -1,0.5 -1,1.1c0.1,0.6 0.5,1 1.1,1c0,0 0,0 0,0z" class="st2"/>
    <path id="svg_27" d="m45.7,26.9l-9.9,0.6c-0.6,0 -1,0.5 -1,1.1c0,0.5 0.5,1 1,1c0,0 0,0 0.1,0l9.9,-0.6c0.6,0 1,-0.5 1,-1.1c0,-0.6 -0.5,-1 -1.1,-1z" class="st2"/>
    <path id="svg_28" d="m35.9,20.8c0.4,0.2 0.8,0.3 1.3,0.3c0.4,0 0.7,-0.2 0.9,-0.5c0.2,-0.3 0.2,-0.6 0.1,-1l-1.4,-3.6c-0.1,-0.4 -0.4,-0.7 -0.8,-0.9c-0.4,-0.2 -0.8,-0.3 -1.3,-0.3c-0.4,0 -0.7,0.2 -0.9,0.5c-0.2,0.3 -0.2,0.6 -0.1,1l1.4,3.6c0.1,0.3 0.4,0.6 0.8,0.9zm-1.2,-4.9c0.1,-0.1 0.2,-0.2 0.3,-0.2c0.1,0 0.3,0 0.4,0.1c0.1,0.1 0.2,0.2 0.3,0.3l1.4,3.6c0,0.1 0,0.2 0,0.3c-0.1,0.1 -0.2,0.1 -0.3,0.2c-0.1,0 -0.3,0 -0.4,-0.1c-0.1,-0.1 -0.2,-0.2 -0.3,-0.3l-1.4,-3.6c-0.1,-0.1 -0.1,-0.3 0,-0.3z" class="st2"/>
    <path id="svg_29" d="m39.5,20.6c0.1,0.1 0.2,0.2 0.4,0.2l1.8,-0.1c0.3,0 0.5,-0.1 0.6,-0.3c0.1,-0.2 0.2,-0.4 0.1,-0.7l-0.8,-1.9c0,-0.1 -0.1,-0.2 -0.2,-0.2c-0.1,-0.1 -0.2,-0.1 -0.3,-0.1l0,0c0.1,0 0.2,0 0.2,-0.1c0.1,-0.1 0.1,-0.2 0,-0.2l-0.7,-1.9c-0.1,-0.3 -0.3,-0.5 -0.6,-0.6c-0.3,-0.2 -0.5,-0.2 -0.8,-0.2l-1.8,0.1c-0.2,0 -0.2,0.1 -0.2,0.3l2.3,5.7zm1.1,-2.5c0.1,0.1 0.2,0.1 0.2,0.2l0.4,1.1c0,0.1 0,0.2 0,0.3c-0.1,0.1 -0.1,0.1 -0.2,0.1l-0.7,0.1l-0.7,-1.8l0.7,-0.1c0.1,0 0.2,0.1 0.3,0.1zm-1.4,-2.8c0.1,0 0.2,0 0.3,0.1c0.1,0.1 0.2,0.1 0.2,0.2l0.4,1.1c0,0.1 0,0.2 0,0.3c-0.1,0.1 -0.1,0.1 -0.2,0.1l-0.7,0.1l-0.7,-1.8l0.7,-0.1z" class="st2"/>
    <path id="svg_30" d="m42,16.5c0.1,0.3 0.4,0.6 0.8,0.9c0.4,0.3 0.9,0.4 1.3,0.4c0.1,0 0.3,0 0.4,0.1c0.1,0.1 0.2,0.2 0.3,0.3l0.4,0.9c0,0.1 0,0.2 0,0.3c-0.1,0.1 -0.2,0.1 -0.3,0.2c-0.1,0 -0.3,0 -0.4,-0.1c-0.1,-0.1 -0.2,-0.2 -0.3,-0.3l-0.2,-0.3c-0.1,-0.1 -0.2,-0.2 -0.4,-0.2l-0.5,0c-0.2,0 -0.2,0.1 -0.2,0.3l0.1,0.2c0.1,0.4 0.4,0.7 0.8,0.9c0.4,0.2 0.8,0.3 1.3,0.3c0.4,0 0.7,-0.2 0.9,-0.5c0.2,-0.3 0.2,-0.6 0.1,-1l-0.3,-0.9c-0.1,-0.3 -0.4,-0.6 -0.8,-0.9c-0.4,-0.3 -0.9,-0.4 -1.3,-0.3c-0.1,0 -0.3,0 -0.4,-0.1c-0.1,-0.1 -0.2,-0.2 -0.3,-0.3l-0.4,-0.9c0,-0.1 0,-0.2 0,-0.3c0.1,-0.1 0.2,-0.2 0.3,-0.2c0.1,0 0.3,0 0.4,0.1c0.1,0.1 0.2,0.2 0.3,0.3l0.1,0.2c0.1,0.1 0.2,0.2 0.4,0.2l0.5,0c0.2,0 0.2,-0.1 0.2,-0.3l-0.1,-0.2c-0.1,-0.4 -0.4,-0.7 -0.8,-0.9c-0.4,-0.2 -0.8,-0.3 -1.3,-0.3c-0.4,0 -0.7,0.2 -1,0.5c-0.2,0.3 -0.2,0.6 -0.1,1l0.5,0.9z" class="st2"/>
   </g>
  </g>
  <path id="svg_31" d="m33.6,29.8c-0.6,-0.6 -0.6,-1.5 0,-2.1l16.3,-16.3l-1.2,0.1c-0.8,0.1 -1.5,-0.5 -1.6,-1.3c-0.1,-0.8 0.5,-1.5 1.3,-1.6l5.4,-0.6c0.3,0 0.6,0 0.8,0.1c0.5,0.3 0.9,0.8 0.9,1.4l0,0c0,0 0,0 0,0c0,0 0,0.1 0,0.1l-0.7,5.4c-0.1,0.8 -0.8,1.4 -1.6,1.3c-0.8,-0.1 -1.4,-0.8 -1.3,-1.6l0.1,-1.2l-16.3,16.3c-0.3,0.3 -0.7,0.4 -1,0.4c-0.4,0 -0.8,-0.1 -1.1,-0.4zm-23.8,-16.2c0.2,-6.3 5.2,-9.6 10,-10c0.2,0 1.4,0 1.7,0c1.5,0.2 3,0.6 4.3,1.3c0.3,0.1 1,0.5 1,0.6c2.5,1.6 4.3,4.3 4.5,8.1c0.2,5.5 -1.8,9.9 -5.6,12.2c-1.6,0.9 -3.4,1.4 -5.1,1.4c-1.8,0 -3.6,-0.5 -5.1,-1.4c-3.9,-2.3 -5.9,-6.7 -5.7,-12.2zm7.1,9.6c2.2,1.3 5,1.3 7.3,0c2.8,-1.7 4.3,-5.1 4.2,-9.5c-0.1,-1.9 -0.7,-3.4 -1.7,-4.5c-1.6,3.2 -4.8,5.3 -8.9,5.6c-0.8,0.1 -1.5,-0.6 -1.6,-1.4c-0.1,-0.8 0.6,-1.5 1.4,-1.6c2.6,-0.2 5.5,-1.5 6.6,-4.4c-1.1,-0.5 -2.4,-0.8 -3.6,-0.9c-3.8,0.2 -7.6,2.4 -7.8,7.2c-0.2,4.4 1.3,7.8 4.1,9.5zm41.8,10.6l0,27.8c0,0.8 -0.7,1.4 -1.5,1.4l-24.8,0c-0.8,0 -1.5,-0.6 -1.5,-1.4l0,-12.3c0,-0.8 0.7,-1.5 1.5,-1.5l9.7,0c0.8,0 1.5,0.7 1.5,1.5l0,10.7l4.6,0l0,-17.3l-6.7,0l0,1.2c0,0.8 -0.7,1.5 -1.5,1.5c-0.8,0 -1.5,-0.7 -1.5,-1.5l0,-2.7c0,-0.8 0.6,-1.5 1.4,-1.5l9.7,0c0.8,0 1.5,0.7 1.5,1.5l0,18.8l4.6,0l0,-24.8l-6.7,0l0,0.5c0,0.8 -0.7,1.5 -1.5,1.5s-1.5,-0.7 -1.5,-1.5l0,-1.9c0,-0.8 0.6,-1.5 1.4,-1.5l9.7,0c1,0 1.6,0.6 1.6,1.5zm-18.1,17l-6.8,0l0,9.2l6.8,0l0,-9.2zm-7.8,-7.9c0.8,-0.1 1.3,-0.9 1.2,-1.7l-0.2,-1.3c-1.2,-6.6 -7.4,-9.6 -13.1,-9.6c0,0 0,0 0,0l0,0c0,0 0,0 0,0l0,0c0,0 0,0 0,0c-5.6,0 -11.8,3 -13.1,9.6l-3.6,18.8c-0.1,0.4 0,0.9 0.3,1.2c0.3,0.3 0.7,0.5 1.1,0.5l19.6,0c0.8,0 1.5,-0.7 1.5,-1.5s-0.7,-1.5 -1.5,-1.5l-17.8,0l3.2,-17.1c0.9,-4.9 5.8,-7.2 10.2,-7.2c4.4,0 9.3,2.2 10.2,7.2l0.2,1.3c0.2,0.9 1,1.4 1.8,1.3zm-10.7,-2.8c-0.8,0 -1.5,0.7 -1.5,1.5c0,0.8 0.7,1.5 1.5,1.5l2.9,0c0.8,0 1.5,-0.7 1.5,-1.5c0,-0.8 -0.7,-1.5 -1.5,-1.5l-2.9,0z" class="st2"/>
 </g>
</svg>