<svg width="76.2" height="49" xmlns="http://www.w3.org/2000/svg">
 <style type="text/css">.st0{display:none;}
	.st1{display:inline;}
	.st2{fill:#46CC62;}
	.st3{display:inline;fill:#46CC62;}
	.st4{fill:#FFFFFF;}
	.st5{font-family:'ArialMT';}
	.st6{font-size:30px;}
	.st7{font-family:'FranklinGothic-Medium';}
	.st8{font-size:45px;}</style>

 <g>
  <title>background</title>
  <rect fill="none" id="canvas_background" height="51" width="78.2" y="-1" x="-1"/>
 </g>
 <g>
  <title>Layer 1</title>
  <g id="svg_1" class="st0">
   <g class="st1" id="Layer_1_7_">
    <g id="svg_2">
     <path id="svg_3" d="m187.4,86.8l-23.7,0c-0.9,0 -1.7,0.7 -1.7,1.7l0,15l-7.9,0c-0.9,0 -1.7,0.7 -1.7,1.7l0,16.6c0,0.9 0.7,1.7 1.7,1.7l15.8,0l17.4,0c0.9,0 1.7,-0.7 1.7,-1.7l0,-16.6l0,-16.7c0,-0.9 -0.7,-1.7 -1.6,-1.7zm-22,3.3l20.4,0l0,12.1l-6.3,-3.5c-0.5,-0.3 -1.1,-0.3 -1.6,0l-8.3,4.6l-4.1,0l-0.1,-13.2l0,0zm-9.6,16.6l7.9,0l4.6,0l0,13.3l-12.5,0l0,-13.3zm29.9,13.3l-14.1,0l0,-14l7.1,-3.9l7.1,3.9l-0.1,14c0,0 0,0 0,0z" class="st2"/>
     <path id="svg_4" d="m160.4,108.8l-2.5,0c-0.2,0 -0.4,0.2 -0.4,0.4l0,2.5c0,0.2 0.2,0.4 0.4,0.4l2.5,0c0.2,0 0.4,-0.2 0.4,-0.4l0,-2.5c0,-0.2 -0.2,-0.4 -0.4,-0.4z" class="st2"/>
     <path id="svg_5" d="m166.2,108.8l-2.5,0c-0.2,0 -0.4,0.2 -0.4,0.4l0,2.5c0,0.2 0.2,0.4 0.4,0.4l2.5,0c0.2,0 0.4,-0.2 0.4,-0.4l0,-2.5c0,-0.2 -0.2,-0.4 -0.4,-0.4z" class="st2"/>
     <path id="svg_6" d="m160.4,114.6l-2.5,0c-0.2,0 -0.4,0.2 -0.4,0.4l0,2.5c0,0.2 0.2,0.4 0.4,0.4l2.5,0c0.2,0 0.4,-0.2 0.4,-0.4l0,-2.5c0,-0.2 -0.2,-0.4 -0.4,-0.4z" class="st2"/>
     <path id="svg_7" d="m166.2,114.6l-2.5,0c-0.2,0 -0.4,0.2 -0.4,0.4l0,2.5c0,0.2 0.2,0.4 0.4,0.4l2.5,0c0.2,0 0.4,-0.2 0.4,-0.4l0,-2.5c0,-0.2 -0.2,-0.4 -0.4,-0.4z" class="st2"/>
     <path id="svg_8" d="m177,108.8l-2.5,0c-0.2,0 -0.4,0.2 -0.4,0.4l0,2.5c0,0.2 0.2,0.4 0.4,0.4l2.5,0c0.2,0 0.4,-0.2 0.4,-0.4l0,-2.5c0,-0.2 -0.2,-0.4 -0.4,-0.4z" class="st2"/>
     <path id="svg_9" d="m180.3,112.2l2.5,0c0.2,0 0.4,-0.2 0.4,-0.4l0,-2.5c0,-0.2 -0.2,-0.4 -0.4,-0.4l-2.5,0c-0.2,0 -0.4,0.2 -0.4,0.4l0,2.5c0,0.2 0.2,0.4 0.4,0.4z" class="st2"/>
     <path id="svg_10" d="m177,114.6l-2.5,0c-0.2,0 -0.4,0.2 -0.4,0.4l0,2.5c0,0.2 0.2,0.4 0.4,0.4l2.5,0c0.2,0 0.4,-0.2 0.4,-0.4l0,-2.5c0,-0.2 -0.2,-0.4 -0.4,-0.4z" class="st2"/>
     <path id="svg_11" d="m180.3,118l2.5,0c0.2,0 0.4,-0.2 0.4,-0.4l0,-2.5c0,-0.2 -0.2,-0.4 -0.4,-0.4l-2.5,0c-0.2,0 -0.4,0.2 -0.4,0.4l0,2.5c0,0.2 0.2,0.4 0.4,0.4z" class="st2"/>
     <path id="svg_12" d="m168.7,96.1l2.5,0c0.2,0 0.4,-0.2 0.4,-0.4l0,-2.5c0,-0.2 -0.2,-0.4 -0.4,-0.4l-2.5,0c-0.2,0 -0.4,0.2 -0.4,0.4l0,2.5c0,0.2 0.1,0.4 0.4,0.4z" class="st2"/>
     <path id="svg_13" d="m174.5,96.1l2.5,0c0.2,0 0.4,-0.2 0.4,-0.4l0,-2.5c0,-0.2 -0.2,-0.4 -0.4,-0.4l-2.5,0c-0.2,0 -0.4,0.2 -0.4,0.4l0,2.5c0,0.2 0.2,0.4 0.4,0.4z" class="st2"/>
     <path id="svg_14" d="m171.2,101.9c0.2,0 0.4,-0.2 0.4,-0.4l0,-2.5c0,-0.2 -0.2,-0.4 -0.4,-0.4l-2.5,0c-0.2,0 -0.4,0.2 -0.4,0.4l0,2.5c0,0.2 0.2,0.4 0.4,0.4l2.5,0z" class="st2"/>
     <path id="svg_15" d="m180.3,96.1l2.5,0c0.2,0 0.4,-0.2 0.4,-0.4l0,-2.5c0,-0.2 -0.2,-0.4 -0.4,-0.4l-2.5,0c-0.2,0 -0.4,0.2 -0.4,0.4l0,2.5c0,0.2 0.2,0.4 0.4,0.4z" class="st2"/>
    </g>
   </g>
  </g>
  <g id="svg_16" class="st0">
   <polygon id="svg_17" points="158.4,88.2 158.4,104.5 166.9,104.5 166.9,111.9 183.2,111.9 183.2,88.2  " class="st3"/>
   <polygon id="svg_18" points="158.4,107.2 158.4,111.9 163.1,111.9  " class="st3"/>
   <rect id="svg_19" height="2.8" width="24.8" class="st3" y="114.2" x="158.4"/>
   <polygon id="svg_20" points="164.6,106.8 161,106.8 164.6,110.4  " class="st3"/>
   <rect id="svg_21" height="2.8" width="24.8" class="st3" y="119.2" x="158.4"/>
  </g>
  <g id="svg_22" class="st0">
   <g id="svg_23" class="st1">
    <path id="svg_24" d="m188,115.5c0,-0.1 -0.5,-2.3 -1.5,-4.7c-1.4,-3.5 -3.2,-5.8 -5.4,-6.9c-0.3,-0.2 -3.5,-1.7 -3.5,-1.7l-1.5,-1.3l-1.9,1.9l-1.2,0.1l-2,-2l-1.5,1.3l-2.7,1.2l-12.9,1.1c-0.2,0 -0.4,0.2 -0.5,0.4c-0.1,0.2 -0.1,0.5 0,0.7c1,1.8 1.9,3.5 2.6,5c-0.1,0.1 -0.2,0.2 -0.3,0.3c-2.4,2.4 -2.3,4.8 -1.5,6.1c0.5,0.9 1.5,1.3 2.4,1.3c0.5,0 1.1,-0.1 1.5,-0.4c0.1,-0.1 0.3,-0.2 0.4,-0.3c0.2,0.8 0.4,1.6 0.5,2.2c0.5,3.1 0.1,4.6 0.1,4.7c-0.1,0.2 0,0.4 0.1,0.6c0.1,0.2 0.3,0.3 0.5,0.3c0,0 0,0 0,0l20.5,-0.8c0.4,0 0.7,-0.3 0.7,-0.7c0,-0.5 0,-1 0,-1.6c0.1,0 0.3,0 0.4,0c0.7,0 1.4,-0.2 1.9,-0.7l3.8,-3.4c0.9,-0.6 1.3,-1.7 1,-2.7zm-27.3,8.5c0.1,-1.2 0.1,-3.6 -0.8,-7.2c1.1,-0.9 1.5,-2.2 1.3,-3.4c0.1,0 0.2,0.1 0.2,0.1l0.8,-0.1c0.3,0 0.5,-0.1 0.6,-0.3c0.1,-0.2 0.2,-0.4 0.1,-0.7l-2,-5.1c-0.1,-0.1 -0.2,-0.2 -0.4,-0.2l-0.5,0c-0.2,0 -0.2,0.1 -0.2,0.3l1.8,4.7c0,0.1 0,0.2 0,0.3c-0.1,0.1 -0.2,0.1 -0.3,0.2l-0.2,0c-0.1,0 -0.1,0 -0.2,0.1c0,0 0,-0.1 -0.1,-0.1c-0.6,-1.1 -2.1,-1 -2.7,-0.9c-0.7,-1.7 -1.7,-3.7 -2.8,-5.8l19.8,-1.6c0.7,1.7 3.1,7.7 4.2,13.9c-0.3,0.9 -0.4,2.4 0.4,3.4c0,0.6 0.1,1.2 0.1,1.8l-19.1,0.6zm19.7,-7.4l0.5,-4.2c0.4,0.9 0.8,1.9 1,2.8l-1.5,1.4z" class="st2"/>
    <path id="svg_25" d="m173.6,100.9c3.8,0 6.7,-3.6 6.7,-9.5c0,-4.1 -1.9,-6.6 -6.7,-6.6c-4.8,0 -6.8,2.5 -6.7,6.6c0.1,6 2.9,9.5 6.7,9.5z" class="st2"/>
    <path id="svg_26" d="m163.8,117.4l9.9,-0.6c0.6,0 1,-0.5 1,-1.1c0,-0.6 -0.5,-1 -1.1,-1l-9.9,0.6c-0.6,0 -1,0.5 -1,1.1c0.1,0.6 0.5,1 1.1,1c0,0 0,0 0,0z" class="st2"/>
    <path id="svg_27" d="m174.2,118.9l-9.9,0.6c-0.6,0 -1,0.5 -1,1.1c0,0.5 0.5,1 1,1c0,0 0,0 0.1,0l9.9,-0.6c0.6,0 1,-0.5 1,-1.1c0,-0.6 -0.5,-1 -1.1,-1z" class="st2"/>
    <path id="svg_28" d="m164.4,112.8c0.4,0.2 0.8,0.3 1.3,0.3c0.4,0 0.7,-0.2 0.9,-0.5c0.2,-0.3 0.2,-0.6 0.1,-1l-1.4,-3.6c-0.1,-0.4 -0.4,-0.7 -0.8,-0.9c-0.4,-0.2 -0.8,-0.3 -1.3,-0.3c-0.4,0 -0.7,0.2 -0.9,0.5c-0.2,0.3 -0.2,0.6 -0.1,1l1.4,3.6c0.1,0.3 0.4,0.6 0.8,0.9zm-1.2,-4.9c0.1,-0.1 0.2,-0.2 0.3,-0.2c0.1,0 0.3,0 0.4,0.1c0.1,0.1 0.2,0.2 0.3,0.3l1.4,3.6c0,0.1 0,0.2 0,0.3c-0.1,0.1 -0.2,0.1 -0.3,0.2c-0.1,0 -0.3,0 -0.4,-0.1c-0.1,-0.1 -0.2,-0.2 -0.3,-0.3l-1.4,-3.6c-0.1,-0.1 -0.1,-0.3 0,-0.3z" class="st2"/>
    <path id="svg_29" d="m168,112.6c0.1,0.1 0.2,0.2 0.4,0.2l1.8,-0.1c0.3,0 0.5,-0.1 0.6,-0.3c0.1,-0.2 0.2,-0.4 0.1,-0.7l-0.8,-1.9c0,-0.1 -0.1,-0.2 -0.2,-0.2c-0.1,-0.1 -0.2,-0.1 -0.3,-0.1l0,0c0.1,0 0.2,0 0.2,-0.1c0.1,-0.1 0.1,-0.2 0,-0.2l-0.7,-1.9c-0.1,-0.3 -0.3,-0.5 -0.6,-0.6c-0.3,-0.2 -0.5,-0.2 -0.8,-0.2l-1.8,0.1c-0.2,0 -0.2,0.1 -0.2,0.3l2.3,5.7zm1.1,-2.5c0.1,0.1 0.2,0.1 0.2,0.2l0.4,1.1c0,0.1 0,0.2 0,0.3c-0.1,0.1 -0.1,0.1 -0.2,0.1l-0.7,0.1l-0.7,-1.8l0.7,-0.1c0.1,0 0.2,0.1 0.3,0.1zm-1.4,-2.8c0.1,0 0.2,0 0.3,0.1c0.1,0.1 0.2,0.1 0.2,0.2l0.4,1.1c0,0.1 0,0.2 0,0.3c-0.1,0.1 -0.1,0.1 -0.2,0.1l-0.7,0.1l-0.7,-1.8l0.7,-0.1z" class="st2"/>
    <path id="svg_30" d="m170.5,108.5c0.1,0.3 0.4,0.6 0.8,0.9c0.4,0.3 0.9,0.4 1.3,0.4c0.1,0 0.3,0 0.4,0.1c0.1,0.1 0.2,0.2 0.3,0.3l0.4,0.9c0,0.1 0,0.2 0,0.3c-0.1,0.1 -0.2,0.1 -0.3,0.2c-0.1,0 -0.3,0 -0.4,-0.1c-0.1,-0.1 -0.2,-0.2 -0.3,-0.3l-0.1,-0.2c-0.1,-0.1 -0.2,-0.2 -0.4,-0.2l-0.5,0c-0.2,0 -0.2,0.1 -0.2,0.3l0.1,0.2c0.1,0.4 0.4,0.7 0.8,0.9c0.4,0.2 0.8,0.3 1.3,0.3c0.4,0 0.7,-0.2 0.9,-0.5c0.2,-0.3 0.2,-0.6 0.1,-1l-0.4,-0.9c-0.1,-0.3 -0.4,-0.6 -0.8,-0.9c-0.4,-0.3 -0.9,-0.4 -1.3,-0.3c-0.1,0 -0.3,0 -0.4,-0.1c-0.1,-0.1 -0.2,-0.2 -0.3,-0.3l-0.4,-0.9c0,-0.1 0,-0.2 0,-0.3c0.1,-0.1 0.2,-0.2 0.3,-0.2c0.1,0 0.3,0 0.4,0.1c0.1,0.1 0.2,0.2 0.3,0.3l0.1,0.2c0.1,0.1 0.2,0.2 0.4,0.2l0.5,0c0.2,0 0.2,-0.1 0.2,-0.3l-0.1,-0.2c-0.1,-0.4 -0.4,-0.7 -0.8,-0.9c-0.4,-0.2 -0.8,-0.3 -1.3,-0.3c-0.4,0 -0.7,0.2 -1,0.5c-0.2,0.3 -0.2,0.6 -0.1,1l0.5,0.8z" class="st2"/>
   </g>
  </g>
  <g id="svg_31">
   <g id="svg_34"/>
   <g id="svg_36">
    <path id="svg_37" d="m36.1,5c-13.9,0 -26,8.2 -31.5,20.1c-0.2,0.4 -0.2,0.8 0,1.1c5.5,11.9 17.5,20.1 31.5,20.1s26,-8.2 31.5,-20.1c0.2,-0.4 0.2,-0.8 0,-1.1c-5.5,-11.8 -17.6,-20.1 -31.5,-20.1zm0,34.9c-7.9,0 -14.3,-6.4 -14.3,-14.3c0,-7.9 6.4,-14.3 14.3,-14.3c7.9,0 14.3,6.4 14.3,14.3s-6.4,14.3 -14.3,14.3z" class="st4"/>
    <circle stroke="null" id="svg_38" r="9.1" cy="24.7" cx="36.1" class="st4"/>
   </g>
  </g>
 </g>
</svg>