<svg width="65.7" height="87" xmlns="http://www.w3.org/2000/svg">
 <style type="text/css">.st0{display:none;}
	.st1{display:inline;}
	.st2{fill:#46CC62;}
	.st3{display:inline;fill:#46CC62;}</style>

 <g>
  <title>background</title>
  <rect fill="none" id="canvas_background" height="89" width="67.7" y="-1" x="-1"/>
 </g>
 <g>
  <title>Layer 1</title>
  <g id="svg_1" class="st0">
   <g class="st1" id="Layer_1_7_">
    <g id="svg_2">
     <path id="svg_3" d="m72.9,37.3l-23.7,0c-0.9,0 -1.7,0.7 -1.7,1.7l0,15l-7.9,0c-0.9,0 -1.7,0.7 -1.7,1.7l0,16.6c0,0.9 0.7,1.7 1.7,1.7l15.8,0l17.4,0c0.9,0 1.7,-0.7 1.7,-1.7l0,-16.7l0,-16.6c0,-0.9 -0.7,-1.7 -1.6,-1.7zm-22,3.3l20.4,0l0,12.1l-6.3,-3.4c-0.5,-0.3 -1.1,-0.3 -1.6,0l-8.4,4.6l-4.1,0l0,-13.3l0,0zm-9.6,16.6l7.9,0l4.6,0l0,13.3l-12.5,0l0,-13.3zm29.9,13.3l-14.1,0l0,-14l7.1,-3.9l7.1,3.9l-0.1,14c0,0 0,0 0,0z" class="st2"/>
     <path id="svg_4" d="m45.9,59.3l-2.5,0c-0.2,0 -0.4,0.2 -0.4,0.4l0,2.5c0,0.2 0.2,0.4 0.4,0.4l2.5,0c0.2,0 0.4,-0.2 0.4,-0.4l0,-2.5c0,-0.2 -0.2,-0.4 -0.4,-0.4z" class="st2"/>
     <path id="svg_5" d="m51.7,59.3l-2.5,0c-0.2,0 -0.4,0.2 -0.4,0.4l0,2.5c0,0.2 0.2,0.4 0.4,0.4l2.5,0c0.2,0 0.4,-0.2 0.4,-0.4l0,-2.5c0,-0.2 -0.2,-0.4 -0.4,-0.4z" class="st2"/>
     <path id="svg_6" d="m45.9,65.1l-2.5,0c-0.2,0 -0.4,0.2 -0.4,0.4l0,2.5c0,0.2 0.2,0.4 0.4,0.4l2.5,0c0.2,0 0.4,-0.2 0.4,-0.4l0,-2.5c0,-0.2 -0.2,-0.4 -0.4,-0.4z" class="st2"/>
     <path id="svg_7" d="m51.7,65.1l-2.5,0c-0.2,0 -0.4,0.2 -0.4,0.4l0,2.5c0,0.2 0.2,0.4 0.4,0.4l2.5,0c0.2,0 0.4,-0.2 0.4,-0.4l0,-2.5c0,-0.2 -0.2,-0.4 -0.4,-0.4z" class="st2"/>
     <path id="svg_8" d="m62.5,59.3l-2.5,0c-0.2,0 -0.4,0.2 -0.4,0.4l0,2.5c0,0.2 0.2,0.4 0.4,0.4l2.5,0c0.2,0 0.4,-0.2 0.4,-0.4l0,-2.5c0,-0.2 -0.2,-0.4 -0.4,-0.4z" class="st2"/>
     <path id="svg_9" d="m65.8,62.7l2.5,0c0.2,0 0.4,-0.2 0.4,-0.4l0,-2.5c0,-0.2 -0.2,-0.4 -0.4,-0.4l-2.5,0c-0.2,0 -0.4,0.2 -0.4,0.4l0,2.5c0,0.2 0.2,0.4 0.4,0.4z" class="st2"/>
     <path id="svg_10" d="m62.5,65.1l-2.5,0c-0.2,0 -0.4,0.2 -0.4,0.4l0,2.5c0,0.2 0.2,0.4 0.4,0.4l2.5,0c0.2,0 0.4,-0.2 0.4,-0.4l0,-2.5c0,-0.2 -0.2,-0.4 -0.4,-0.4z" class="st2"/>
     <path id="svg_11" d="m65.8,68.5l2.5,0c0.2,0 0.4,-0.2 0.4,-0.4l0,-2.5c0,-0.2 -0.2,-0.4 -0.4,-0.4l-2.5,0c-0.2,0 -0.4,0.2 -0.4,0.4l0,2.4c0,0.3 0.2,0.5 0.4,0.5z" class="st2"/>
     <path id="svg_12" d="m54.2,46.6l2.5,0c0.2,0 0.4,-0.2 0.4,-0.4l0,-2.5c0,-0.2 -0.2,-0.4 -0.4,-0.4l-2.5,0c-0.2,0 -0.4,0.2 -0.4,0.4l0,2.5c0,0.2 0.1,0.4 0.4,0.4z" class="st2"/>
     <path id="svg_13" d="m60,46.6l2.5,0c0.2,0 0.4,-0.2 0.4,-0.4l0,-2.5c0,-0.2 -0.2,-0.4 -0.4,-0.4l-2.5,0c-0.2,0 -0.4,0.2 -0.4,0.4l0,2.5c0,0.2 0.2,0.4 0.4,0.4z" class="st2"/>
     <path id="svg_14" d="m56.7,52.4c0.2,0 0.4,-0.2 0.4,-0.4l0,-2.5c0,-0.2 -0.2,-0.4 -0.4,-0.4l-2.5,0c-0.2,0 -0.4,0.2 -0.4,0.4l0,2.5c0,0.2 0.2,0.4 0.4,0.4l2.5,0z" class="st2"/>
     <path id="svg_15" d="m65.8,46.6l2.5,0c0.2,0 0.4,-0.2 0.4,-0.4l0,-2.5c0,-0.2 -0.2,-0.4 -0.4,-0.4l-2.5,0c-0.2,0 -0.4,0.2 -0.4,0.4l0,2.5c0,0.2 0.2,0.4 0.4,0.4z" class="st2"/>
    </g>
   </g>
  </g>
  <g id="svg_16" class="st0">
   <polygon id="svg_17" points="43.9,38.7 43.9,55 52.4,55 52.4,62.4 68.7,62.4 68.7,38.7  " class="st3"/>
   <polygon id="svg_18" points="43.9,57.7 43.9,62.4 48.6,62.4  " class="st3"/>
   <rect id="svg_19" height="2.8" width="24.8" class="st3" y="64.7" x="43.9"/>
   <polygon id="svg_20" points="50.1,57.3 46.5,57.3 50.1,60.9  " class="st3"/>
   <rect id="svg_21" height="2.8" width="24.8" class="st3" y="69.7" x="43.9"/>
  </g>
  <g id="svg_22" class="st0">
   <g id="svg_23" class="st1">
    <path id="svg_24" d="m73.5,66c0,-0.1 -0.5,-2.3 -1.5,-4.7c-1.4,-3.5 -3.2,-5.8 -5.4,-6.9c-0.3,-0.2 -3.5,-1.7 -3.5,-1.7l-1.5,-1.3l-1.9,1.9l-1.2,0.1l-2,-2l-1.5,1.3l-2.6,1.3l-12.9,1.1c-0.2,0 -0.4,0.2 -0.5,0.4c-0.1,0.2 -0.1,0.5 0,0.7c1,1.8 1.9,3.5 2.6,5c-0.1,0.1 -0.2,0.2 -0.3,0.3c-2.4,2.4 -2.3,4.8 -1.5,6.1c0.5,0.9 1.5,1.3 2.4,1.3c0.5,0 1.1,-0.1 1.5,-0.4c0.1,-0.1 0.3,-0.2 0.4,-0.3c0.2,0.8 0.4,1.6 0.5,2.2c0.5,3.1 0.1,4.6 0.1,4.7c-0.1,0.2 0,0.4 0.1,0.6c0.1,0.2 0.3,0.3 0.5,0.3c0,0 0,0 0,0l20.5,-0.8c0.4,0 0.7,-0.3 0.7,-0.7c0,-0.5 0,-1 0,-1.6c0.1,0 0.3,0 0.4,0c0.7,0 1.4,-0.2 1.9,-0.7l3.8,-3.4c0.8,-0.7 1.2,-1.8 0.9,-2.8zm-27.3,8.5c0.1,-1.2 0.1,-3.6 -0.8,-7.2c1.1,-0.9 1.5,-2.2 1.3,-3.4c0.1,0 0.2,0.1 0.2,0.1l0.8,-0.1c0.3,0 0.5,-0.1 0.6,-0.3c0.1,-0.2 0.2,-0.4 0.1,-0.7l-2,-5.1c-0.1,-0.1 -0.2,-0.2 -0.4,-0.2l-0.5,0c-0.2,0 -0.2,0.1 -0.2,0.3l1.8,4.7c0,0.1 0,0.2 0,0.3c-0.1,0.1 -0.2,0.1 -0.4,0.1l-0.2,0c-0.1,0 -0.1,0 -0.2,0.1c0,0 0,-0.1 -0.1,-0.1c-0.6,-1.1 -2.1,-1 -2.7,-0.9c-0.7,-1.7 -1.7,-3.7 -2.8,-5.8l19.8,-1.6c0.7,1.7 3.1,7.7 4.2,13.9c-0.3,0.9 -0.4,2.4 0.4,3.4c0,0.6 0.1,1.2 0.1,1.8l-19,0.7zm19.7,-7.4l0.5,-4.2c0.4,0.9 0.8,1.9 1,2.8l-1.5,1.4z" class="st2"/>
    <path id="svg_25" d="m59.1,51.4c3.8,0 6.7,-3.6 6.7,-9.5c0,-4.1 -1.9,-6.6 -6.7,-6.6c-4.8,0 -6.8,2.5 -6.7,6.6c0.1,6 2.9,9.5 6.7,9.5z" class="st2"/>
    <path id="svg_26" d="m49.3,67.9l9.9,-0.6c0.6,0 1,-0.5 1,-1.1c0,-0.6 -0.5,-1 -1.1,-1l-9.9,0.6c-0.6,0 -1,0.5 -1,1.1c0.1,0.6 0.5,1 1.1,1c0,0 0,0 0,0z" class="st2"/>
    <path id="svg_27" d="m59.7,69.4l-9.9,0.6c-0.6,0 -1,0.5 -1,1.1c0,0.5 0.5,1 1,1c0,0 0,0 0.1,0l9.9,-0.6c0.6,0 1,-0.5 1,-1.1c0,-0.6 -0.5,-1 -1.1,-1z" class="st2"/>
    <path id="svg_28" d="m49.9,63.3c0.4,0.2 0.8,0.3 1.3,0.3c0.4,0 0.7,-0.2 0.9,-0.5c0.2,-0.3 0.2,-0.6 0.1,-1l-1.4,-3.6c-0.1,-0.4 -0.4,-0.7 -0.8,-0.9c-0.4,-0.2 -0.8,-0.3 -1.3,-0.3c-0.4,0 -0.7,0.2 -0.9,0.5c-0.2,0.3 -0.2,0.6 -0.1,1l1.4,3.6c0.1,0.3 0.4,0.6 0.8,0.9zm-1.2,-4.9c0.1,-0.1 0.2,-0.2 0.3,-0.2c0.1,0 0.3,0 0.4,0.1c0.1,0.1 0.2,0.2 0.3,0.3l1.4,3.6c0,0.1 0,0.2 0,0.3c-0.1,0.1 -0.2,0.1 -0.3,0.2c-0.1,0 -0.3,0 -0.4,-0.1c-0.1,-0.1 -0.2,-0.2 -0.3,-0.3l-1.4,-3.6c-0.1,-0.1 -0.1,-0.3 0,-0.3z" class="st2"/>
    <path id="svg_29" d="m53.5,63.1c0.1,0.1 0.2,0.2 0.4,0.2l1.8,-0.1c0.3,0 0.5,-0.1 0.6,-0.3c0.1,-0.2 0.2,-0.4 0.1,-0.7l-0.8,-1.9c0,-0.1 -0.1,-0.2 -0.2,-0.2c-0.1,-0.1 -0.2,-0.1 -0.3,-0.1l0,0c0.1,0 0.2,0 0.2,-0.1c0.1,-0.1 0.1,-0.2 0,-0.2l-0.7,-1.9c-0.1,-0.3 -0.3,-0.5 -0.6,-0.6c-0.3,-0.2 -0.5,-0.2 -0.8,-0.2l-1.8,0.1c-0.2,0 -0.2,0.1 -0.2,0.3l2.3,5.7zm1.1,-2.5c0.1,0.1 0.2,0.1 0.2,0.2l0.4,1.1c0,0.1 0,0.2 0,0.3c-0.1,0.1 -0.1,0.1 -0.2,0.1l-0.7,0.1l-0.7,-1.8l0.7,-0.1c0.1,0 0.2,0.1 0.3,0.1zm-1.4,-2.8c0.1,0 0.2,0 0.3,0.1c0.1,0.1 0.2,0.1 0.2,0.2l0.4,1.1c0,0.1 0,0.2 0,0.3c-0.1,0.1 -0.1,0.1 -0.2,0.1l-0.7,0.1l-0.7,-1.8l0.7,-0.1z" class="st2"/>
    <path id="svg_30" d="m56,59c0.1,0.3 0.4,0.6 0.8,0.9c0.4,0.3 0.9,0.4 1.3,0.4c0.1,0 0.3,0 0.4,0.1c0.1,0.1 0.2,0.2 0.3,0.3l0.4,0.9c0,0.1 0,0.2 0,0.3c-0.2,0.1 -0.3,0.1 -0.4,0.1c-0.1,0 -0.3,0 -0.4,-0.1c-0.1,-0.1 -0.2,-0.2 -0.3,-0.3l-0.1,-0.2c-0.1,-0.1 -0.2,-0.2 -0.4,-0.2l-0.5,0c-0.2,0 -0.2,0.1 -0.2,0.3l0.1,0.2c0.1,0.4 0.4,0.7 0.8,0.9c0.4,0.2 0.8,0.3 1.3,0.3c0.4,0 0.7,-0.2 0.9,-0.5c0.2,-0.3 0.2,-0.6 0.1,-1l-0.4,-0.9c-0.1,-0.3 -0.4,-0.6 -0.8,-0.9c-0.4,-0.3 -0.9,-0.4 -1.3,-0.3c-0.1,0 -0.3,0 -0.4,-0.1c-0.1,-0.1 -0.2,-0.2 -0.2,-0.3l-0.4,-0.9c0,-0.1 0,-0.2 0,-0.3c0.1,-0.1 0.2,-0.2 0.3,-0.2c0.1,0 0.3,0 0.4,0.1c0.1,0.1 0.2,0.2 0.3,0.3l0.1,0.2c0.1,0.1 0.2,0.2 0.4,0.2l0.5,0c0.2,0 0.2,-0.1 0.2,-0.3l-0.1,-0.2c-0.1,-0.4 -0.4,-0.7 -0.8,-0.9c-0.4,-0.2 -0.8,-0.3 -1.3,-0.3c-0.4,0 -0.7,0.2 -1,0.5c-0.2,0.3 -0.2,0.6 -0.1,1l0.5,0.9z" class="st2"/>
   </g>
  </g>
  <g id="svg_31">
   <path id="svg_32" d="m49.5,5l-39.7,0c-2.7,0 -4.8,2.2 -4.8,4.8l0,69.2c0,2.7 2.2,4.8 4.8,4.8l48.6,0c2.7,0 4.8,-2.2 4.8,-4.8l0,-59.1l-13.7,-14.9zm1.2,7.2l6,6.6l-6,0l0,-6.6zm8.5,66.8c0,0.4 -0.3,0.8 -0.8,0.8l-48.6,0c-0.4,0 -0.8,-0.3 -0.8,-0.8l0,-69.2c0,-0.4 0.3,-0.8 0.8,-0.8l36.7,0l0,11.8c0,1.1 0.9,2 2,2l10.6,0l0,56.2l0.1,0zm-43,-52.4l34.5,0c0.8,0 1.5,0.7 1.5,1.5c0,0.8 -0.7,1.5 -1.5,1.5l-34.5,0c-0.8,0 -1.5,-0.7 -1.5,-1.5c0,-0.8 0.7,-1.5 1.5,-1.5zm36,11.7c0,0.8 -0.7,1.5 -1.5,1.5l-34.5,0c-0.8,0 -1.5,-0.7 -1.5,-1.5c0,-0.8 0.7,-1.5 1.5,-1.5l34.5,0c0.8,0 1.5,0.7 1.5,1.5zm0,9.9c0,0.8 -0.7,1.5 -1.5,1.5l-34.5,0c-0.8,0 -1.5,-0.7 -1.5,-1.5c0,-0.8 0.7,-1.5 1.5,-1.5l34.5,0c0.8,0 1.5,0.7 1.5,1.5zm0,10.1c0,0.8 -0.7,1.5 -1.5,1.5l-34.5,0c-0.8,0 -1.5,-0.7 -1.5,-1.5c0,-0.8 0.7,-1.5 1.5,-1.5l34.5,0c0.8,-0.1 1.5,0.6 1.5,1.5z" class="st2"/>
  </g>
 </g>
</svg>