<?xml version="1.0" encoding="utf-8"?>
<!-- Generator: Adobe Illustrator 22.0.1, SVG Export Plug-In . SVG Version: 6.00 Build 0)  -->
<svg version="1.1" id="Layer_1" xmlns="http://www.w3.org/2000/svg" xmlns:xlink="http://www.w3.org/1999/xlink" x="0px" y="0px"
	 viewBox="0 0 128.2 117.5" style="enable-background:new 0 0 128.2 117.5;" xml:space="preserve">
<style type="text/css">
	.st0{display:none;}
	.st1{display:inline;}
	.st2{fill:#46CC62;}
	.st3{display:inline;fill:#46CC62;}
</style>
<g class="st0">
	<g id="Layer_1_7_" class="st1">
		<g>
			<path class="st2" d="M72.9,37.3H49.2c-0.9,0-1.7,0.7-1.7,1.7v15h-7.9c-0.9,0-1.7,0.7-1.7,1.7v16.6c0,0.9,0.7,1.7,1.7,1.7h15.8
				h17.4c0.9,0,1.7-0.7,1.7-1.7V55.6V39C74.5,38.1,73.8,37.3,72.9,37.3z M50.9,40.6h20.4v12.1L65,49.3c-0.5-0.3-1.1-0.3-1.6,0
				L55,53.9h-4.1L50.9,40.6L50.9,40.6z M41.3,57.2h7.9h4.6v13.3H41.3V57.2z M71.2,70.5H57.1v-14l7.1-3.9l7.1,3.9L71.2,70.5
				C71.2,70.5,71.2,70.5,71.2,70.5z"/>
			<path class="st2" d="M45.9,59.3h-2.5c-0.2,0-0.4,0.2-0.4,0.4v2.5c0,0.2,0.2,0.4,0.4,0.4h2.5c0.2,0,0.4-0.2,0.4-0.4v-2.5
				C46.3,59.5,46.1,59.3,45.9,59.3z"/>
			<path class="st2" d="M51.7,59.3h-2.5c-0.2,0-0.4,0.2-0.4,0.4v2.5c0,0.2,0.2,0.4,0.4,0.4h2.5c0.2,0,0.4-0.2,0.4-0.4v-2.5
				C52.1,59.5,51.9,59.3,51.7,59.3z"/>
			<path class="st2" d="M45.9,65.1h-2.5c-0.2,0-0.4,0.2-0.4,0.4V68c0,0.2,0.2,0.4,0.4,0.4h2.5c0.2,0,0.4-0.2,0.4-0.4v-2.5
				C46.3,65.3,46.1,65.1,45.9,65.1z"/>
			<path class="st2" d="M51.7,65.1h-2.5c-0.2,0-0.4,0.2-0.4,0.4V68c0,0.2,0.2,0.4,0.4,0.4h2.5c0.2,0,0.4-0.2,0.4-0.4v-2.5
				C52.1,65.3,51.9,65.1,51.7,65.1z"/>
			<path class="st2" d="M62.5,59.3H60c-0.2,0-0.4,0.2-0.4,0.4v2.5c0,0.2,0.2,0.4,0.4,0.4h2.5c0.2,0,0.4-0.2,0.4-0.4v-2.5
				C62.9,59.5,62.7,59.3,62.5,59.3z"/>
			<path class="st2" d="M65.8,62.7h2.5c0.2,0,0.4-0.2,0.4-0.4v-2.5c0-0.2-0.2-0.4-0.4-0.4h-2.5c-0.2,0-0.4,0.2-0.4,0.4v2.5
				C65.4,62.5,65.6,62.7,65.8,62.7z"/>
			<path class="st2" d="M62.5,65.1H60c-0.2,0-0.4,0.2-0.4,0.4V68c0,0.2,0.2,0.4,0.4,0.4h2.5c0.2,0,0.4-0.2,0.4-0.4v-2.5
				C62.9,65.3,62.7,65.1,62.5,65.1z"/>
			<path class="st2" d="M65.8,68.5h2.5c0.2,0,0.4-0.2,0.4-0.4v-2.5c0-0.2-0.2-0.4-0.4-0.4h-2.5c-0.2,0-0.4,0.2-0.4,0.4V68
				C65.4,68.3,65.6,68.5,65.8,68.5z"/>
			<path class="st2" d="M54.2,46.6h2.5c0.2,0,0.4-0.2,0.4-0.4v-2.5c0-0.2-0.2-0.4-0.4-0.4h-2.5c-0.2,0-0.4,0.2-0.4,0.4v2.5
				C53.8,46.4,53.9,46.6,54.2,46.6z"/>
			<path class="st2" d="M60,46.6h2.5c0.2,0,0.4-0.2,0.4-0.4v-2.5c0-0.2-0.2-0.4-0.4-0.4H60c-0.2,0-0.4,0.2-0.4,0.4v2.5
				C59.6,46.4,59.8,46.6,60,46.6z"/>
			<path class="st2" d="M56.7,52.4c0.2,0,0.4-0.2,0.4-0.4v-2.5c0-0.2-0.2-0.4-0.4-0.4h-2.5c-0.2,0-0.4,0.2-0.4,0.4V52
				c0,0.2,0.2,0.4,0.4,0.4H56.7z"/>
			<path class="st2" d="M65.8,46.6h2.5c0.2,0,0.4-0.2,0.4-0.4v-2.5c0-0.2-0.2-0.4-0.4-0.4h-2.5c-0.2,0-0.4,0.2-0.4,0.4v2.5
				C65.4,46.4,65.6,46.6,65.8,46.6z"/>
		</g>
	</g>
</g>
<g class="st0">
	<polygon class="st3" points="43.9,38.7 43.9,55 52.4,55 52.4,62.4 68.7,62.4 68.7,38.7 	"/>
	<polygon class="st3" points="43.9,57.7 43.9,62.4 48.6,62.4 	"/>
	<rect x="43.9" y="64.7" class="st3" width="24.8" height="2.8"/>
	<polygon class="st3" points="50.1,57.3 46.5,57.3 50.1,60.9 	"/>
	<rect x="43.9" y="69.7" class="st3" width="24.8" height="2.8"/>
</g>
<g class="st0">
	<g class="st1">
		<path class="st2" d="M73.5,66c0-0.1-0.5-2.3-1.5-4.7c-1.4-3.5-3.2-5.8-5.4-6.9c-0.3-0.2-3.5-1.7-3.5-1.7l-1.5-1.3l-1.9,1.9
			l-1.2,0.1l-2-2l-1.5,1.3L52.4,54l-12.9,1.1c-0.2,0-0.4,0.2-0.5,0.4c-0.1,0.2-0.1,0.5,0,0.7c1,1.8,1.9,3.5,2.6,5
			c-0.1,0.1-0.2,0.2-0.3,0.3c-2.4,2.4-2.3,4.8-1.5,6.1c0.5,0.9,1.5,1.3,2.4,1.3c0.5,0,1.1-0.1,1.5-0.4c0.1-0.1,0.3-0.2,0.4-0.3
			c0.2,0.8,0.4,1.6,0.5,2.2c0.5,3.1,0.1,4.6,0.1,4.7c-0.1,0.2,0,0.4,0.1,0.6c0.1,0.2,0.3,0.3,0.5,0.3c0,0,0,0,0,0l20.5-0.8
			c0.4,0,0.7-0.3,0.7-0.7c0-0.5,0-1,0-1.6c0.1,0,0.3,0,0.4,0c0.7,0,1.4-0.2,1.9-0.7l3.8-3.4C73.4,68.1,73.8,67,73.5,66z M46.2,74.5
			c0.1-1.2,0.1-3.6-0.8-7.2c1.1-0.9,1.5-2.2,1.3-3.4c0.1,0,0.2,0.1,0.2,0.1l0.8-0.1c0.3,0,0.5-0.1,0.6-0.3c0.1-0.2,0.2-0.4,0.1-0.7
			l-2-5.1c-0.1-0.1-0.2-0.2-0.4-0.2l-0.5,0c-0.2,0-0.2,0.1-0.2,0.3l1.8,4.7c0,0.1,0,0.2,0,0.3C47,63,46.9,63,46.7,63l-0.2,0
			c-0.1,0-0.1,0-0.2,0.1c0,0,0-0.1-0.1-0.1c-0.6-1.1-2.1-1-2.7-0.9c-0.7-1.7-1.7-3.7-2.8-5.8l19.8-1.6c0.7,1.7,3.1,7.7,4.2,13.9
			c-0.3,0.9-0.4,2.4,0.4,3.4c0,0.6,0.1,1.2,0.1,1.8L46.2,74.5z M65.9,67.1l0.5-4.2c0.4,0.9,0.8,1.9,1,2.8L65.9,67.1z"/>
		<path class="st2" d="M59.1,51.4c3.8,0,6.7-3.6,6.7-9.5c0-4.1-1.9-6.6-6.7-6.6c-4.8,0-6.8,2.5-6.7,6.6
			C52.5,47.9,55.3,51.4,59.1,51.4z"/>
		<path class="st2" d="M49.3,67.9l9.9-0.6c0.6,0,1-0.5,1-1.1c0-0.6-0.5-1-1.1-1l-9.9,0.6c-0.6,0-1,0.5-1,1.1
			C48.3,67.5,48.7,67.9,49.3,67.9C49.3,67.9,49.3,67.9,49.3,67.9z"/>
		<path class="st2" d="M59.7,69.4L49.8,70c-0.6,0-1,0.5-1,1.1c0,0.5,0.5,1,1,1c0,0,0,0,0.1,0l9.9-0.6c0.6,0,1-0.5,1-1.1
			C60.8,69.8,60.3,69.4,59.7,69.4z"/>
		<path class="st2" d="M49.9,63.3c0.4,0.2,0.8,0.3,1.3,0.3c0.4,0,0.7-0.2,0.9-0.5c0.2-0.3,0.2-0.6,0.1-1l-1.4-3.6
			c-0.1-0.4-0.4-0.7-0.8-0.9c-0.4-0.2-0.8-0.3-1.3-0.3c-0.4,0-0.7,0.2-0.9,0.5c-0.2,0.3-0.2,0.6-0.1,1l1.4,3.6
			C49.2,62.7,49.5,63,49.9,63.3z M48.7,58.4c0.1-0.1,0.2-0.2,0.3-0.2c0.1,0,0.3,0,0.4,0.1c0.1,0.1,0.2,0.2,0.3,0.3l1.4,3.6
			c0,0.1,0,0.2,0,0.3c-0.1,0.1-0.2,0.1-0.3,0.2c-0.1,0-0.3,0-0.4-0.1c-0.1-0.1-0.2-0.2-0.3-0.3l-1.4-3.6
			C48.6,58.6,48.6,58.4,48.7,58.4z"/>
		<path class="st2" d="M53.5,63.1c0.1,0.1,0.2,0.2,0.4,0.2l1.8-0.1c0.3,0,0.5-0.1,0.6-0.3c0.1-0.2,0.2-0.4,0.1-0.7l-0.8-1.9
			c0-0.1-0.1-0.2-0.2-0.2C55.3,60,55.2,60,55.1,60l0,0c0.1,0,0.2,0,0.2-0.1c0.1-0.1,0.1-0.2,0-0.2l-0.7-1.9
			c-0.1-0.3-0.3-0.5-0.6-0.6c-0.3-0.2-0.5-0.2-0.8-0.2l-1.8,0.1c-0.2,0-0.2,0.1-0.2,0.3L53.5,63.1z M54.6,60.6
			c0.1,0.1,0.2,0.1,0.2,0.2l0.4,1.1c0,0.1,0,0.2,0,0.3c-0.1,0.1-0.1,0.1-0.2,0.1l-0.7,0.1l-0.7-1.8l0.7-0.1
			C54.4,60.5,54.5,60.6,54.6,60.6z M53.2,57.8c0.1,0,0.2,0,0.3,0.1c0.1,0.1,0.2,0.1,0.2,0.2l0.4,1.1c0,0.1,0,0.2,0,0.3
			c-0.1,0.1-0.1,0.1-0.2,0.1l-0.7,0.1l-0.7-1.8L53.2,57.8z"/>
		<path class="st2" d="M56,59c0.1,0.3,0.4,0.6,0.8,0.9c0.4,0.3,0.9,0.4,1.3,0.4c0.1,0,0.3,0,0.4,0.1c0.1,0.1,0.2,0.2,0.3,0.3
			l0.4,0.9c0,0.1,0,0.2,0,0.3C59,62,58.9,62,58.8,62c-0.1,0-0.3,0-0.4-0.1c-0.1-0.1-0.2-0.2-0.3-0.3L58,61.4
			c-0.1-0.1-0.2-0.2-0.4-0.2l-0.5,0c-0.2,0-0.2,0.1-0.2,0.3l0.1,0.2c0.1,0.4,0.4,0.7,0.8,0.9c0.4,0.2,0.8,0.3,1.3,0.3
			c0.4,0,0.7-0.2,0.9-0.5c0.2-0.3,0.2-0.6,0.1-1l-0.4-0.9c-0.1-0.3-0.4-0.6-0.8-0.9c-0.4-0.3-0.9-0.4-1.3-0.3c-0.1,0-0.3,0-0.4-0.1
			C57.1,59.1,57,59,57,58.9L56.6,58c0-0.1,0-0.2,0-0.3c0.1-0.1,0.2-0.2,0.3-0.2c0.1,0,0.3,0,0.4,0.1c0.1,0.1,0.2,0.2,0.3,0.3
			l0.1,0.2c0.1,0.1,0.2,0.2,0.4,0.2l0.5,0c0.2,0,0.2-0.1,0.2-0.3l-0.1-0.2c-0.1-0.4-0.4-0.7-0.8-0.9c-0.4-0.2-0.8-0.3-1.3-0.3
			c-0.4,0-0.7,0.2-1,0.5c-0.2,0.3-0.2,0.6-0.1,1L56,59z"/>
	</g>
</g>
<g>
	<path class="st2" d="M71.5,51.4c-2-2-4.6-3.1-7.4-3.1h0c-2.8,0-5.4,1.1-7.4,3.1c-2,2-3.1,4.6-3.1,7.4c0,2.8,1.1,5.4,3.1,7.4
		c2,2,4.6,3.1,7.4,3.1c2.8,0,5.4-1.1,7.4-3.1c2-2,3.1-4.6,3.1-7.4C74.5,56,73.5,53.3,71.5,51.4L71.5,51.4z M72.2,63.2h-3.1
		c0.4-1.2,0.7-2.5,0.7-3.9h3.5C73.2,60.8,72.8,62.1,72.2,63.2L72.2,63.2z M64.1,67.9c-1.3-0.8-2.4-2-3.2-3.5h6.3
		C66.5,65.9,65.4,67.1,64.1,67.9L64.1,67.9z M60.4,63.2c-0.5-1.2-0.7-2.5-0.8-3.9h9c-0.1,1.4-0.3,2.7-0.8,3.9H60.4z M54.9,59.4h3.5
		c0.1,1.4,0.3,2.7,0.7,3.9H56C55.4,62.1,55,60.8,54.9,59.4L54.9,59.4z M56,54.3h3.1c-0.4,1.2-0.7,2.5-0.7,3.9h-3.5
		C55,56.8,55.4,55.4,56,54.3L56,54.3z M64.1,49.6c1.3,0.8,2.4,2,3.2,3.5h-6.3C61.7,51.6,62.8,50.4,64.1,49.6L64.1,49.6z M67.8,54.3
		c0.5,1.2,0.7,2.5,0.8,3.9h-9c0.1-1.4,0.3-2.7,0.8-3.9H67.8z M73.3,58.1h-3.5c-0.1-1.4-0.3-2.7-0.7-3.9h3.1
		C72.8,55.4,73.2,56.8,73.3,58.1L73.3,58.1z M68.6,53.1c-0.6-1.3-1.4-2.4-2.3-3.3c2,0.5,3.8,1.7,5,3.3H68.6z M61.8,49.8
		c-0.9,0.9-1.7,2-2.3,3.3h-2.7C58.1,51.5,59.8,50.3,61.8,49.8L61.8,49.8z M59.6,64.4c0.6,1.3,1.4,2.4,2.3,3.3c-2-0.5-3.8-1.7-5-3.3
		H59.6z M66.3,67.7c0.9-0.9,1.7-2,2.3-3.3h2.7C70.1,66,68.3,67.2,66.3,67.7L66.3,67.7z M66.3,67.7"/>
</g>
</svg>
