<?xml version="1.0" encoding="utf-8"?>
<!-- Generator: Adobe Illustrator 22.0.1, SVG Export Plug-In . SVG Version: 6.00 Build 0)  -->
<svg version="1.1" id="Layer_1" xmlns="http://www.w3.org/2000/svg" xmlns:xlink="http://www.w3.org/1999/xlink" x="0px" y="0px"
	 viewBox="0 0 154.7 154.7" style="enable-background:new 0 0 154.7 154.7;" xml:space="preserve">
<style type="text/css">
	.st0{fill:#FFFFFF;}
</style>
<path class="st0" d="M105.7,58C105.7,58,105.6,58,105.7,58l-16,0v-1.8c0-2.9-2.4-5.3-5.3-5.3H70.3c-2.9,0-5.3,2.4-5.3,5.3V58h-16
	c-1,0-1.8,0.8-1.8,1.8v38.7c0,2.9,2.4,5.3,5.3,5.3h49.5c2.9,0,5.3-2.4,5.3-5.3V59.8c0,0,0,0,0,0C107.3,58.6,106.6,58,105.7,58z
	 M68.6,56.3c0-1,0.8-1.8,1.8-1.8h14.1c1,0,1.8,0.8,1.8,1.8V58H68.6V56.3z M103.2,61.5l-5.5,16.4c-0.2,0.7-0.9,1.2-1.7,1.2h-9.9v-1.8
	c0-1-0.8-1.8-1.8-1.8H70.3c-1,0-1.8,0.8-1.8,1.8v1.8h-9.9c-0.8,0-1.4-0.5-1.7-1.2l-5.5-16.4H103.2z M82.7,79.1v3.5H72.1v-3.5H82.7z
	 M103.9,98.5c0,1-0.8,1.8-1.8,1.8H52.6c-1,0-1.8-0.8-1.8-1.8V70.6l2.8,8.4c0.7,2.2,2.7,3.6,5,3.6h9.9v1.8c0,1,0.8,1.8,1.8,1.8h14.1
	c1,0,1.8-0.8,1.8-1.8v-1.8h9.9c2.3,0,4.3-1.5,5-3.6l2.8-8.4V98.5z"/>
</svg>
