<svg width="70.7" height="64.7" xmlns="http://www.w3.org/2000/svg">
 <style type="text/css">.st0{fill:#FFFFFF;}</style>

 <g>
  <title>background</title>
  <rect fill="none" id="canvas_background" height="66.7" width="72.7" y="-1" x="-1"/>
 </g>
 <g>
  <title>Layer 1</title>
  <path id="svg_1" d="m63.7,12c0,0 -0.1,0 0,0l-16,0l0,-1.8c0,-2.9 -2.4,-5.3 -5.3,-5.3l-14.1,0c-2.9,0 -5.3,2.4 -5.3,5.3l0,1.8l-16,0c-1,0 -1.8,0.8 -1.8,1.8l0,38.7c0,2.9 2.4,5.3 5.3,5.3l49.5,0c2.9,0 5.3,-2.4 5.3,-5.3l0,-38.7c0,0 0,0 0,0c0,-1.2 -0.7,-1.8 -1.6,-1.8zm-37.1,-1.7c0,-1 0.8,-1.8 1.8,-1.8l14.1,0c1,0 1.8,0.8 1.8,1.8l0,1.7l-17.7,0l0,-1.7zm34.6,5.2l-5.5,16.4c-0.2,0.7 -0.9,1.2 -1.7,1.2l-9.9,0l0,-1.8c0,-1 -0.8,-1.8 -1.8,-1.8l-14,0c-1,0 -1.8,0.8 -1.8,1.8l0,1.8l-9.9,0c-0.8,0 -1.4,-0.5 -1.7,-1.2l-5.5,-16.4l51.8,0zm-20.5,17.6l0,3.5l-10.6,0l0,-3.5l10.6,0zm21.2,19.4c0,1 -0.8,1.8 -1.8,1.8l-49.5,0c-1,0 -1.8,-0.8 -1.8,-1.8l0,-27.9l2.8,8.4c0.7,2.2 2.7,3.6 5,3.6l9.9,0l0,1.8c0,1 0.8,1.8 1.8,1.8l14.1,0c1,0 1.8,-0.8 1.8,-1.8l0,-1.8l9.9,0c2.3,0 4.3,-1.5 5,-3.6l2.8,-8.4l0,27.9z" class="st0"/>
 </g>
</svg>