<svg width="68.7" height="67.7" xmlns="http://www.w3.org/2000/svg">
 <style type="text/css">.st0{fill:#FFFFFF;}</style>

 <g>
  <title>background</title>
  <rect fill="none" id="canvas_background" height="69.7" width="70.7" y="-1" x="-1"/>
 </g>
 <g>
  <title>Layer 1</title>
  <g id="svg_1">
   <g id="svg_2">
    <rect id="svg_3" height="3.8" width="23.7" class="st0" y="18.7" x="14.6"/>
    <path id="svg_4" d="m49.9,47.6c1.8,-3.2 1.3,-7.4 -1.4,-10.1c-1.6,-1.6 -3.7,-2.5 -5.9,-2.5s-4.4,0.9 -5.9,2.5c-1.6,1.6 -2.5,3.7 -2.5,5.9c0,2.2 0.9,4.3 2.5,5.9c1.6,1.6 3.7,2.4 5.9,2.4c1.5,0 2.9,-0.4 4.1,-1.1l9.4,9.4l3.2,-3.2l-9.4,-9.2zm-3.7,-0.6c-1.9,1.9 -5.2,1.9 -7.1,0c-1.9,-1.9 -1.9,-5.1 0,-7.1c0.9,-0.9 2.2,-1.5 3.5,-1.5c1.3,0 2.6,0.5 3.5,1.5c0.9,0.9 1.5,2.2 1.5,3.5c0,1.4 -0.5,2.6 -1.4,3.6z" class="st0"/>
    <path id="svg_5" d="m45.2,54l-33.1,0c-0.5,0 -0.9,-0.4 -0.9,-0.9l0,-41.4c0,-0.5 0.4,-0.9 0.9,-0.9l33.1,0c0.5,0 0.9,0.4 0.9,0.9l0,21.1c1.4,0.3 2.6,0.9 3.8,1.7l0,-22.8c0,-2.6 -2.1,-4.7 -4.7,-4.7l-33.1,0c-2.6,0 -4.7,2.1 -4.7,4.7l0,41.3c0,2.6 2.1,4.7 4.7,4.7l33.1,0c2,0 2.9,-0.5 3.6,-2.2l-1.7,-1.7c-0.6,0.3 -1.6,0.2 -1.9,0.2z" class="st0"/>
    <rect id="svg_6" height="3.8" width="23.7" class="st0" y="29.5" x="14.6"/>
   </g>
  </g>
 </g>
</svg>