<?xml version="1.0" encoding="utf-8"?>
<!-- Generator: Adobe Illustrator 22.0.1, SVG Export Plug-In . SVG Version: 6.00 Build 0)  -->
<svg version="1.1" id="Layer_1" xmlns="http://www.w3.org/2000/svg" xmlns:xlink="http://www.w3.org/1999/xlink" x="0px" y="0px"
	 viewBox="0 0 154.7 154.7" style="enable-background:new 0 0 154.7 154.7;" xml:space="preserve">
<style type="text/css">
	.st0{fill:#FFFFFF;}
</style>
<g>
	<g>
		<rect x="58.6" y="62.5" class="st0" width="23.7" height="3.8"/>
		<path class="st0" d="M93.9,91.4c1.8-3.2,1.3-7.4-1.4-10.1c-1.6-1.6-3.7-2.5-5.9-2.5s-4.4,0.9-5.9,2.5c-1.6,1.6-2.5,3.7-2.5,5.9
			c0,2.2,0.9,4.3,2.5,5.9c1.6,1.6,3.7,2.4,5.9,2.4c1.5,0,2.9-0.4,4.1-1.1l9.4,9.4l3.2-3.2L93.9,91.4z M90.2,90.8
			c-1.9,1.9-5.2,1.9-7.1,0c-1.9-1.9-1.9-5.1,0-7.1c0.9-0.9,2.2-1.5,3.5-1.5c1.3,0,2.6,0.5,3.5,1.5c0.9,0.9,1.5,2.2,1.5,3.5
			C91.6,88.6,91.1,89.8,90.2,90.8z"/>
		<path class="st0" d="M89.2,97.8H56.1c-0.5,0-0.9-0.4-0.9-0.9V55.5c0-0.5,0.4-0.9,0.9-0.9h33.1c0.5,0,0.9,0.4,0.9,0.9v21.1
			c1.4,0.3,2.6,0.9,3.8,1.7V55.5c0-2.6-2.1-4.7-4.7-4.7H56.1c-2.6,0-4.7,2.1-4.7,4.7v41.3c0,2.6,2.1,4.7,4.7,4.7h33.1
			c2,0,2.9-0.5,3.6-2.2l-1.7-1.7C90.5,97.9,89.5,97.8,89.2,97.8z"/>
		<rect x="58.6" y="73.3" class="st0" width="23.7" height="3.8"/>
	</g>
</g>
</svg>
