<?xml version="1.0" encoding="utf-8"?>
<!-- Generator: Adobe Illustrator 22.0.1, SVG Export Plug-In . SVG Version: 6.00 Build 0)  -->
<svg version="1.1" id="Layer_1" xmlns="http://www.w3.org/2000/svg" xmlns:xlink="http://www.w3.org/1999/xlink" x="0px" y="0px"
	 viewBox="0 0 154.7 154.7" style="enable-background:new 0 0 154.7 154.7;" xml:space="preserve">
<style type="text/css">
	.st0{fill:#FFFFFF;}
</style>
<g>
	<path class="st0" d="M86.1,95.2c-0.6-0.1-1.2,0.2-1.3,0.8l-1.3,5.5H47.8l3.4-14.6h27.2c0.6,0,1.1-0.5,1.1-1.1s-0.5-1.1-1.1-1.1
		H51.2l-3.4-14.6h35.7l1.6,7c0.1,0.6,0.7,1,1.3,0.8c0.6-0.1,1-0.7,0.8-1.3L85.5,69l3.8-16.6c0.1-0.3,0-0.7-0.2-0.9
		c-0.2-0.3-0.5-0.4-0.9-0.4h-38c-0.5,0-1,0.4-1.1,0.9l-3.9,16.8c0,0.2,0,0.3,0,0.5l3.8,16.6l-3.8,16.6c-0.1,0.3,0,0.7,0.2,0.9
		s0.5,0.4,0.9,0.4h38c0.5,0,1-0.4,1.1-0.9l1.5-6.4C87.1,95.9,86.7,95.3,86.1,95.2z M51.2,53.2h35.7l-3.4,14.6H47.8L51.2,53.2z"/>
	<path class="st0" d="M54.6,59h18.9c0.6,0,1.1-0.5,1.1-1.1s-0.5-1.1-1.1-1.1H54.6c-0.6,0-1.1,0.5-1.1,1.1S54,59,54.6,59z"/>
	<path class="st0" d="M52.6,64.3h18.9c0.6,0,1.1-0.5,1.1-1.1s-0.5-1.1-1.1-1.1H52.6c-0.6,0-1.1,0.5-1.1,1.1S52,64.3,52.6,64.3z"/>
	<path class="st0" d="M74.6,91.6c0-0.6-0.5-1.1-1.1-1.1H54.6c-0.6,0-1.1,0.5-1.1,1.1s0.5,1.1,1.1,1.1h18.9
		C74.1,92.7,74.6,92.2,74.6,91.6z"/>
	<path class="st0" d="M52.6,95.7c-0.6,0-1.1,0.5-1.1,1.1s0.5,1.1,1.1,1.1h18.9c0.6,0,1.1-0.5,1.1-1.1s-0.5-1.1-1.1-1.1H52.6z"/>
	<path class="st0" d="M72.6,74.7c0-0.6-0.5-1.1-1.1-1.1H52.6c-0.6,0-1.1,0.5-1.1,1.1s0.5,1.1,1.1,1.1h18.9
		C72.1,75.8,72.6,75.3,72.6,74.7z"/>
	<path class="st0" d="M54.6,81.1h18.9c0.6,0,1.1-0.5,1.1-1.1s-0.5-1.1-1.1-1.1H54.6c-0.6,0-1.1,0.5-1.1,1.1S54,81.1,54.6,81.1z"/>
	<path class="st0" d="M77,60c0.1,0.4,0.4,0.7,0.7,0.8c0.1,0,0.2,0.1,0.4,0.1c0.3,0,0.5-0.1,0.7-0.3l3.7-3.3c0.5-0.4,0.5-1.1,0.1-1.6
		c-0.4-0.5-1.1-0.5-1.6-0.1l-2.3,2l-0.1-0.3c-0.1-0.6-0.7-1-1.3-0.9c-0.6,0.1-1,0.7-0.9,1.3L77,60z"/>
	<path class="st0" d="M78.2,78c0.1,0,0.1,0,0.2,0c0.4-0.1,0.7-0.3,0.9-0.7l1.8-4.6c0.2-0.6-0.1-1.2-0.6-1.4
		c-0.6-0.2-1.2,0.1-1.4,0.6l-1.1,2.9l-0.2-0.3c-0.4-0.5-1.1-0.6-1.5-0.2c-0.5,0.4-0.6,1.1-0.2,1.5l1.4,1.8
		C77.5,77.9,77.8,78,78.2,78z"/>
	<path class="st0" d="M78.3,83.3c0.2,0.3,0.5,0.4,0.9,0.4c0.1,0,0.1,0,0.2,0c0.4-0.1,0.7-0.3,0.9-0.7l1.8-4.6
		c0.2-0.6-0.1-1.2-0.6-1.4c-0.6-0.2-1.2,0.1-1.4,0.6l-1.1,2.9l-0.2-0.3c-0.4-0.5-1.1-0.6-1.5-0.2c-0.5,0.4-0.6,1.1-0.2,1.5
		L78.3,83.3z"/>
	<path class="st0" d="M109.1,71.5l-5.6-6c-0.2-0.2-0.5-0.3-0.8-0.3c-0.3,0-0.6,0.1-0.8,0.3l-21,19.7c-0.1,0.1-0.2,0.3-0.3,0.5
		L78,93.8c-0.1,0.4,0,0.8,0.2,1.1c0.2,0.2,0.5,0.3,0.8,0.3c0.1,0,0.2,0,0.3,0l8.3-2.1c0.2,0,0.3-0.1,0.5-0.3l21-19.7
		C109.5,72.7,109.5,72,109.1,71.5z M80.7,92.6l1.5-4.4l3.1,3.3L80.7,92.6z M87.3,90.5l-4.1-4.4l19.4-18.2l4.1,4.4L87.3,90.5z"/>
</g>
</svg>
