<svg width="76.7" height="76.7" xmlns="http://www.w3.org/2000/svg">
 <style type="text/css">.st0{fill:#FFFFFF;}</style>

 <g>
  <title>background</title>
  <rect fill="none" id="canvas_background" height="78.7" width="78.7" y="-1" x="-1"/>
 </g>
 <g>
  <title>Layer 1</title>
  <g id="svg_1">
   <path id="svg_2" d="m48.1,55.2c-0.6,-0.1 -1.2,0.2 -1.3,0.8l-1.3,5.5l-35.7,0l3.4,-14.6l27.2,0c0.6,0 1.1,-0.5 1.1,-1.1s-0.5,-1.1 -1.1,-1.1l-27.2,0l-3.4,-14.6l35.7,0l1.6,7c0.1,0.6 0.7,1 1.3,0.8c0.6,-0.1 1,-0.7 0.8,-1.3l-1.7,-7.6l3.8,-16.6c0.1,-0.3 0,-0.7 -0.2,-0.9c-0.2,-0.3 -0.5,-0.4 -0.9,-0.4l-38,0c-0.5,0 -1,0.4 -1.1,0.9l-3.9,16.8c0,0.2 0,0.3 0,0.5l3.8,16.6l-3.8,16.6c-0.1,0.3 0,0.7 0.2,0.9s0.5,0.4 0.9,0.4l38,0c0.5,0 1,-0.4 1.1,-0.9l1.5,-6.4c0.2,-0.6 -0.2,-1.2 -0.8,-1.3zm-34.9,-42l35.7,0l-3.4,14.6l-35.7,0l3.4,-14.6z" class="st0"/>
   <path id="svg_3" d="m16.6,19l18.9,0c0.6,0 1.1,-0.5 1.1,-1.1s-0.5,-1.1 -1.1,-1.1l-18.9,0c-0.6,0 -1.1,0.5 -1.1,1.1s0.5,1.1 1.1,1.1z" class="st0"/>
   <path id="svg_4" d="m14.6,24.3l18.9,0c0.6,0 1.1,-0.5 1.1,-1.1s-0.5,-1.1 -1.1,-1.1l-18.9,0c-0.6,0 -1.1,0.5 -1.1,1.1s0.5,1.1 1.1,1.1z" class="st0"/>
   <path id="svg_5" d="m36.6,51.6c0,-0.6 -0.5,-1.1 -1.1,-1.1l-18.9,0c-0.6,0 -1.1,0.5 -1.1,1.1s0.5,1.1 1.1,1.1l18.9,0c0.6,0 1.1,-0.5 1.1,-1.1z" class="st0"/>
   <path id="svg_6" d="m14.6,55.7c-0.6,0 -1.1,0.5 -1.1,1.1s0.5,1.1 1.1,1.1l18.9,0c0.6,0 1.1,-0.5 1.1,-1.1s-0.5,-1.1 -1.1,-1.1l-18.9,0z" class="st0"/>
   <path id="svg_7" d="m34.6,34.7c0,-0.6 -0.5,-1.1 -1.1,-1.1l-18.9,0c-0.6,0 -1.1,0.5 -1.1,1.1s0.5,1.1 1.1,1.1l18.9,0c0.6,0 1.1,-0.5 1.1,-1.1z" class="st0"/>
   <path id="svg_8" d="m16.6,41.1l18.9,0c0.6,0 1.1,-0.5 1.1,-1.1s-0.5,-1.1 -1.1,-1.1l-18.9,0c-0.6,0 -1.1,0.5 -1.1,1.1s0.5,1.1 1.1,1.1z" class="st0"/>
   <path id="svg_9" d="m39,20c0.1,0.4 0.4,0.7 0.7,0.8c0.1,0 0.2,0.1 0.4,0.1c0.3,0 0.5,-0.1 0.7,-0.3l3.7,-3.3c0.5,-0.4 0.5,-1.1 0.1,-1.6c-0.4,-0.5 -1.1,-0.5 -1.6,-0.1l-2.3,2l-0.1,-0.3c-0.1,-0.6 -0.7,-1 -1.3,-0.9c-0.6,0.1 -1,0.7 -0.9,1.3l0.6,2.3z" class="st0"/>
   <path id="svg_10" d="m40.2,38c0.1,0 0.1,0 0.2,0c0.4,-0.1 0.7,-0.3 0.9,-0.7l1.8,-4.6c0.2,-0.6 -0.1,-1.2 -0.6,-1.4c-0.6,-0.2 -1.2,0.1 -1.4,0.6l-1.1,2.9l-0.2,-0.3c-0.4,-0.5 -1.1,-0.6 -1.5,-0.2c-0.5,0.4 -0.6,1.1 -0.2,1.5l1.4,1.8c0,0.3 0.3,0.4 0.7,0.4z" class="st0"/>
   <path id="svg_11" d="m40.3,43.3c0.2,0.3 0.5,0.4 0.9,0.4c0.1,0 0.1,0 0.2,0c0.4,-0.1 0.7,-0.3 0.9,-0.7l1.8,-4.6c0.2,-0.6 -0.1,-1.2 -0.6,-1.4c-0.6,-0.2 -1.2,0.1 -1.4,0.6l-1.1,2.9l-0.2,-0.3c-0.4,-0.5 -1.1,-0.6 -1.5,-0.2c-0.5,0.4 -0.6,1.1 -0.2,1.5l1.2,1.8z" class="st0"/>
   <path id="svg_12" d="m71.1,31.5l-5.6,-6c-0.2,-0.2 -0.5,-0.3 -0.8,-0.3c-0.3,0 -0.6,0.1 -0.8,0.3l-21,19.7c-0.1,0.1 -0.2,0.3 -0.3,0.5l-2.6,8.1c-0.1,0.4 0,0.8 0.2,1.1c0.2,0.2 0.5,0.3 0.8,0.3c0.1,0 0.2,0 0.3,0l8.3,-2.1c0.2,0 0.3,-0.1 0.5,-0.3l21,-19.7c0.4,-0.4 0.4,-1.1 0,-1.6zm-28.4,21.1l1.5,-4.4l3.1,3.3l-4.6,1.1zm6.6,-2.1l-4.1,-4.4l19.4,-18.2l4.1,4.4l-19.4,18.2z" class="st0"/>
  </g>
 </g>
</svg>