<?xml version="1.0" encoding="utf-8"?>
<!-- Generator: Adobe Illustrator 22.0.1, SVG Export Plug-In . SVG Version: 6.00 Build 0)  -->
<svg version="1.1" id="Layer_1" xmlns="http://www.w3.org/2000/svg" xmlns:xlink="http://www.w3.org/1999/xlink" x="0px" y="0px"
	 viewBox="0 0 154.7 154.7" style="enable-background:new 0 0 154.7 154.7;" xml:space="preserve">
<style type="text/css">
	.st0{fill:#FFFFFF;}
</style>
<g>
	<path class="st0" d="M77.4,56.7c-13.9,0-26,8.2-31.5,20.1c-0.2,0.4-0.2,0.8,0,1.1C51.4,89.8,63.4,98,77.4,98s26-8.2,31.5-20.1
		c0.2-0.4,0.2-0.8,0-1.1C103.3,64.9,91.3,56.7,77.4,56.7z M77.4,91.6c-7.9,0-14.3-6.4-14.3-14.3c0-7.9,6.4-14.3,14.3-14.3
		c7.9,0,14.3,6.4,14.3,14.3S85.2,91.6,77.4,91.6z"/>
	<circle class="st0" cx="77.4" cy="77.4" r="9.1"/>
</g>
</svg>
