<?xml version="1.0" encoding="utf-8"?>
<!-- Generator: Adobe Illustrator 22.0.1, SVG Export Plug-In . SVG Version: 6.00 Build 0)  -->
<svg version="1.1" id="Layer_1" xmlns="http://www.w3.org/2000/svg" xmlns:xlink="http://www.w3.org/1999/xlink" x="0px" y="0px"
	 viewBox="0 0 366.2 288" style="enable-background:new 0 0 366.2 288;" xml:space="preserve">
<style type="text/css">
	.st0{display:none;}
	.st1{display:inline;}
	.st2{fill:#46CC62;}
	.st3{display:inline;fill:#46CC62;}
	.st4{fill:#FFFFFF;}
	.st5{font-family:'ArialMT';}
	.st6{font-size:30px;}
	.st7{font-family:'FranklinGothic-Medium';}
	.st8{font-size:45px;}
</style>
<g class="st0">
	<g id="Layer_1_7_" class="st1">
		<g>
			<path class="st2" d="M187.4,86.8h-23.7c-0.9,0-1.7,0.7-1.7,1.7v15h-7.9c-0.9,0-1.7,0.7-1.7,1.7v16.6c0,0.9,0.7,1.7,1.7,1.7h15.8
				h17.4c0.9,0,1.7-0.7,1.7-1.7v-16.6V88.5C189,87.6,188.3,86.8,187.4,86.8z M165.4,90.1h20.4v12.1l-6.3-3.5c-0.5-0.3-1.1-0.3-1.6,0
				l-8.3,4.6h-4.1L165.4,90.1L165.4,90.1z M155.8,106.7h7.9h4.6V120h-12.5V106.7z M185.7,120h-14.1v-14l7.1-3.9l7.1,3.9L185.7,120
				C185.7,120,185.7,120,185.7,120z"/>
			<path class="st2" d="M160.4,108.8h-2.5c-0.2,0-0.4,0.2-0.4,0.4v2.5c0,0.2,0.2,0.4,0.4,0.4h2.5c0.2,0,0.4-0.2,0.4-0.4v-2.5
				C160.8,109,160.6,108.8,160.4,108.8z"/>
			<path class="st2" d="M166.2,108.8h-2.5c-0.2,0-0.4,0.2-0.4,0.4v2.5c0,0.2,0.2,0.4,0.4,0.4h2.5c0.2,0,0.4-0.2,0.4-0.4v-2.5
				C166.6,109,166.4,108.8,166.2,108.8z"/>
			<path class="st2" d="M160.4,114.6h-2.5c-0.2,0-0.4,0.2-0.4,0.4v2.5c0,0.2,0.2,0.4,0.4,0.4h2.5c0.2,0,0.4-0.2,0.4-0.4v-2.5
				C160.8,114.8,160.6,114.6,160.4,114.6z"/>
			<path class="st2" d="M166.2,114.6h-2.5c-0.2,0-0.4,0.2-0.4,0.4v2.5c0,0.2,0.2,0.4,0.4,0.4h2.5c0.2,0,0.4-0.2,0.4-0.4v-2.5
				C166.6,114.8,166.4,114.6,166.2,114.6z"/>
			<path class="st2" d="M177,108.8h-2.5c-0.2,0-0.4,0.2-0.4,0.4v2.5c0,0.2,0.2,0.4,0.4,0.4h2.5c0.2,0,0.4-0.2,0.4-0.4v-2.5
				C177.4,109,177.2,108.8,177,108.8z"/>
			<path class="st2" d="M180.3,112.2h2.5c0.2,0,0.4-0.2,0.4-0.4v-2.5c0-0.2-0.2-0.4-0.4-0.4h-2.5c-0.2,0-0.4,0.2-0.4,0.4v2.5
				C179.9,112,180.1,112.2,180.3,112.2z"/>
			<path class="st2" d="M177,114.6h-2.5c-0.2,0-0.4,0.2-0.4,0.4v2.5c0,0.2,0.2,0.4,0.4,0.4h2.5c0.2,0,0.4-0.2,0.4-0.4v-2.5
				C177.4,114.8,177.2,114.6,177,114.6z"/>
			<path class="st2" d="M180.3,118h2.5c0.2,0,0.4-0.2,0.4-0.4v-2.5c0-0.2-0.2-0.4-0.4-0.4h-2.5c-0.2,0-0.4,0.2-0.4,0.4v2.5
				C179.9,117.8,180.1,118,180.3,118z"/>
			<path class="st2" d="M168.7,96.1h2.5c0.2,0,0.4-0.2,0.4-0.4v-2.5c0-0.2-0.2-0.4-0.4-0.4h-2.5c-0.2,0-0.4,0.2-0.4,0.4v2.5
				C168.3,95.9,168.4,96.1,168.7,96.1z"/>
			<path class="st2" d="M174.5,96.1h2.5c0.2,0,0.4-0.2,0.4-0.4v-2.5c0-0.2-0.2-0.4-0.4-0.4h-2.5c-0.2,0-0.4,0.2-0.4,0.4v2.5
				C174.1,95.9,174.3,96.1,174.5,96.1z"/>
			<path class="st2" d="M171.2,101.9c0.2,0,0.4-0.2,0.4-0.4V99c0-0.2-0.2-0.4-0.4-0.4h-2.5c-0.2,0-0.4,0.2-0.4,0.4v2.5
				c0,0.2,0.2,0.4,0.4,0.4H171.2z"/>
			<path class="st2" d="M180.3,96.1h2.5c0.2,0,0.4-0.2,0.4-0.4v-2.5c0-0.2-0.2-0.4-0.4-0.4h-2.5c-0.2,0-0.4,0.2-0.4,0.4v2.5
				C179.9,95.9,180.1,96.1,180.3,96.1z"/>
		</g>
	</g>
</g>
<g class="st0">
	<polygon class="st3" points="158.4,88.2 158.4,104.5 166.9,104.5 166.9,111.9 183.2,111.9 183.2,88.2 	"/>
	<polygon class="st3" points="158.4,107.2 158.4,111.9 163.1,111.9 	"/>
	<rect x="158.4" y="114.2" class="st3" width="24.8" height="2.8"/>
	<polygon class="st3" points="164.6,106.8 161,106.8 164.6,110.4 	"/>
	<rect x="158.4" y="119.2" class="st3" width="24.8" height="2.8"/>
</g>
<g class="st0">
	<g class="st1">
		<path class="st2" d="M188,115.5c0-0.1-0.5-2.3-1.5-4.7c-1.4-3.5-3.2-5.8-5.4-6.9c-0.3-0.2-3.5-1.7-3.5-1.7l-1.5-1.3l-1.9,1.9
			l-1.2,0.1l-2-2l-1.5,1.3l-2.7,1.2l-12.9,1.1c-0.2,0-0.4,0.2-0.5,0.4c-0.1,0.2-0.1,0.5,0,0.7c1,1.8,1.9,3.5,2.6,5
			c-0.1,0.1-0.2,0.2-0.3,0.3c-2.4,2.4-2.3,4.8-1.5,6.1c0.5,0.9,1.5,1.3,2.4,1.3c0.5,0,1.1-0.1,1.5-0.4c0.1-0.1,0.3-0.2,0.4-0.3
			c0.2,0.8,0.4,1.6,0.5,2.2c0.5,3.1,0.1,4.6,0.1,4.7c-0.1,0.2,0,0.4,0.1,0.6c0.1,0.2,0.3,0.3,0.5,0.3c0,0,0,0,0,0l20.5-0.8
			c0.4,0,0.7-0.3,0.7-0.7c0-0.5,0-1,0-1.6c0.1,0,0.3,0,0.4,0c0.7,0,1.4-0.2,1.9-0.7l3.8-3.4C187.9,117.6,188.3,116.5,188,115.5z
			 M160.7,124c0.1-1.2,0.1-3.6-0.8-7.2c1.1-0.9,1.5-2.2,1.3-3.4c0.1,0,0.2,0.1,0.2,0.1l0.8-0.1c0.3,0,0.5-0.1,0.6-0.3
			c0.1-0.2,0.2-0.4,0.1-0.7l-2-5.1c-0.1-0.1-0.2-0.2-0.4-0.2l-0.5,0c-0.2,0-0.2,0.1-0.2,0.3l1.8,4.7c0,0.1,0,0.2,0,0.3
			c-0.1,0.1-0.2,0.1-0.3,0.2l-0.2,0c-0.1,0-0.1,0-0.2,0.1c0,0,0-0.1-0.1-0.1c-0.6-1.1-2.1-1-2.7-0.9c-0.7-1.7-1.7-3.7-2.8-5.8
			l19.8-1.6c0.7,1.7,3.1,7.7,4.2,13.9c-0.3,0.9-0.4,2.4,0.4,3.4c0,0.6,0.1,1.2,0.1,1.8L160.7,124z M180.4,116.6l0.5-4.2
			c0.4,0.9,0.8,1.9,1,2.8L180.4,116.6z"/>
		<path class="st2" d="M173.6,100.9c3.8,0,6.7-3.6,6.7-9.5c0-4.1-1.9-6.6-6.7-6.6c-4.8,0-6.8,2.5-6.7,6.6
			C167,97.4,169.8,100.9,173.6,100.9z"/>
		<path class="st2" d="M163.8,117.4l9.9-0.6c0.6,0,1-0.5,1-1.1c0-0.6-0.5-1-1.1-1l-9.9,0.6c-0.6,0-1,0.5-1,1.1
			C162.8,117,163.2,117.4,163.8,117.4C163.8,117.4,163.8,117.4,163.8,117.4z"/>
		<path class="st2" d="M174.2,118.9l-9.9,0.6c-0.6,0-1,0.5-1,1.1c0,0.5,0.5,1,1,1c0,0,0,0,0.1,0l9.9-0.6c0.6,0,1-0.5,1-1.1
			C175.3,119.3,174.8,118.9,174.2,118.9z"/>
		<path class="st2" d="M164.4,112.8c0.4,0.2,0.8,0.3,1.3,0.3c0.4,0,0.7-0.2,0.9-0.5c0.2-0.3,0.2-0.6,0.1-1l-1.4-3.6
			c-0.1-0.4-0.4-0.7-0.8-0.9c-0.4-0.2-0.8-0.3-1.3-0.3c-0.4,0-0.7,0.2-0.9,0.5c-0.2,0.3-0.2,0.6-0.1,1l1.4,3.6
			C163.7,112.2,164,112.5,164.4,112.8z M163.2,107.9c0.1-0.1,0.2-0.2,0.3-0.2c0.1,0,0.3,0,0.4,0.1c0.1,0.1,0.2,0.2,0.3,0.3l1.4,3.6
			c0,0.1,0,0.2,0,0.3c-0.1,0.1-0.2,0.1-0.3,0.2c-0.1,0-0.3,0-0.4-0.1c-0.1-0.1-0.2-0.2-0.3-0.3l-1.4-3.6
			C163.1,108.1,163.1,107.9,163.2,107.9z"/>
		<path class="st2" d="M168,112.6c0.1,0.1,0.2,0.2,0.4,0.2l1.8-0.1c0.3,0,0.5-0.1,0.6-0.3c0.1-0.2,0.2-0.4,0.1-0.7l-0.8-1.9
			c0-0.1-0.1-0.2-0.2-0.2c-0.1-0.1-0.2-0.1-0.3-0.1l0,0c0.1,0,0.2,0,0.2-0.1c0.1-0.1,0.1-0.2,0-0.2l-0.7-1.9
			c-0.1-0.3-0.3-0.5-0.6-0.6c-0.3-0.2-0.5-0.2-0.8-0.2l-1.8,0.1c-0.2,0-0.2,0.1-0.2,0.3L168,112.6z M169.1,110.1
			c0.1,0.1,0.2,0.1,0.2,0.2l0.4,1.1c0,0.1,0,0.2,0,0.3c-0.1,0.1-0.1,0.1-0.2,0.1l-0.7,0.1l-0.7-1.8l0.7-0.1
			C168.9,110,169,110.1,169.1,110.1z M167.7,107.3c0.1,0,0.2,0,0.3,0.1c0.1,0.1,0.2,0.1,0.2,0.2l0.4,1.1c0,0.1,0,0.2,0,0.3
			c-0.1,0.1-0.1,0.1-0.2,0.1l-0.7,0.1l-0.7-1.8L167.7,107.3z"/>
		<path class="st2" d="M170.5,108.5c0.1,0.3,0.4,0.6,0.8,0.9c0.4,0.3,0.9,0.4,1.3,0.4c0.1,0,0.3,0,0.4,0.1c0.1,0.1,0.2,0.2,0.3,0.3
			l0.4,0.9c0,0.1,0,0.2,0,0.3c-0.1,0.1-0.2,0.1-0.3,0.2c-0.1,0-0.3,0-0.4-0.1c-0.1-0.1-0.2-0.2-0.3-0.3l-0.1-0.2
			c-0.1-0.1-0.2-0.2-0.4-0.2l-0.5,0c-0.2,0-0.2,0.1-0.2,0.3l0.1,0.2c0.1,0.4,0.4,0.7,0.8,0.9c0.4,0.2,0.8,0.3,1.3,0.3
			c0.4,0,0.7-0.2,0.9-0.5c0.2-0.3,0.2-0.6,0.1-1l-0.4-0.9c-0.1-0.3-0.4-0.6-0.8-0.9c-0.4-0.3-0.9-0.4-1.3-0.3c-0.1,0-0.3,0-0.4-0.1
			c-0.1-0.1-0.2-0.2-0.3-0.3l-0.4-0.9c0-0.1,0-0.2,0-0.3c0.1-0.1,0.2-0.2,0.3-0.2c0.1,0,0.3,0,0.4,0.1c0.1,0.1,0.2,0.2,0.3,0.3
			l0.1,0.2c0.1,0.1,0.2,0.2,0.4,0.2l0.5,0c0.2,0,0.2-0.1,0.2-0.3l-0.1-0.2c-0.1-0.4-0.4-0.7-0.8-0.9c-0.4-0.2-0.8-0.3-1.3-0.3
			c-0.4,0-0.7,0.2-1,0.5c-0.2,0.3-0.2,0.6-0.1,1L170.5,108.5z"/>
	</g>
</g>
<g>
	<rect x="54.2" y="32.2" class="st2" width="257.7" height="223.6"/>
	<text transform="matrix(0.998 0 0 1 100.7042 217.2919)" class="st4 st5 st6">Posted Jobs</text>
	<g>
		<text transform="matrix(1 0 0 1 169.8938 177.2921)" class="st4 st7 st8">5</text>
	</g>
	<path class="st4" d="M211.4,67.3C211.4,67.3,211.4,67.3,211.4,67.3l-16,0v-1.8c0-2.9-2.4-5.3-5.3-5.3H176c-2.9,0-5.3,2.4-5.3,5.3
		v1.8h-16c-1,0-1.8,0.8-1.8,1.8v38.7c0,2.9,2.4,5.3,5.3,5.3h49.5c2.9,0,5.3-2.4,5.3-5.3V69.1c0,0,0,0,0,0
		C213.1,68,212.3,67.3,211.4,67.3z M174.3,65.6c0-1,0.8-1.8,1.8-1.8h14.1c1,0,1.8,0.8,1.8,1.8v1.8h-17.6V65.6z M208.9,70.8
		l-5.5,16.4c-0.2,0.7-0.9,1.2-1.7,1.2h-9.9v-1.8c0-1-0.8-1.8-1.8-1.8H176c-1,0-1.8,0.8-1.8,1.8v1.8h-9.9c-0.8,0-1.4-0.5-1.7-1.2
		l-5.5-16.4H208.9z M188.4,88.4V92h-10.6v-3.5H188.4z M209.6,107.8c0,1-0.8,1.8-1.8,1.8h-49.5c-1,0-1.8-0.8-1.8-1.8V79.9l2.8,8.4
		c0.7,2.2,2.7,3.6,5,3.6h9.9v1.8c0,1,0.8,1.8,1.8,1.8h14.1c1,0,1.8-0.8,1.8-1.8V92h9.9c2.3,0,4.3-1.5,5-3.6l2.8-8.4V107.8z"/>
</g>
</svg>
